<svg width="1000" height="1000" viewBox="0 0 1000 1000" fill="none" xmlns="http://www.w3.org/2000/svg">
<rect width="1000" height="1000" fill="#FFCFCF" fill-opacity="0.9"/>
<rect width="20.9554" height="236.401" transform="matrix(0.632111 0.774877 -0.75702 0.653392 451.444 328)" fill="#796363"/>
<rect width="25.2105" height="236.443" transform="matrix(-0.636989 -0.770873 0.752842 -0.658201 635.768 574.214)" fill="#796363"/>
<rect width="23.7394" height="240.301" transform="matrix(0.632111 -0.774878 0.75702 0.653392 258 416.323)" fill="#796363"/>
<rect width="22.231" height="240.258" transform="matrix(-0.62721 0.77885 -0.761168 -0.648554 801.82 483.821)" fill="#796363"/>
<rect width="24.7183" height="156.166" transform="matrix(-0.930367 -0.366631 0.349028 -0.937112 530.451 455.407)" fill="#796363"/>
<rect width="24.7126" height="156.186" transform="matrix(0.933043 0.359766 -0.3424 0.939554 508.224 444.364)" fill="#796363"/>
<path d="M455.581 333.997L278 485.508L286.558 496.997L462 342.613L455.581 333.997Z" fill="black" stroke="black"/>
<path d="M441.356 567.997L262 415.545L270.644 406.997L450 558.023L441.356 567.997Z" fill="black" stroke="black"/>
<path d="M785.146 496.235L609.771 346.775L616.959 338.235L793.771 485.559L785.146 496.235Z" fill="black" stroke="black"/>
<path d="M636.953 569.235L810.771 419.997L802.044 409.235L626.771 556.32L636.953 569.235Z" fill="black" stroke="black"/>
<path d="M460 587.447L510.833 451L521 455.264L470.167 591L460 587.447Z" fill="black" stroke="black"/>
<path d="M519.977 451L572 311.869L562.736 309L536.368 377.848L510 446.697L519.977 451Z" fill="black" stroke="black"/>
<path d="M726.726 136V122.7H732.483C733.674 122.7 734.7 122.896 735.561 123.289C736.422 123.669 737.087 124.22 737.556 124.942C738.025 125.664 738.259 126.525 738.259 127.526C738.259 128.514 738.025 129.369 737.556 130.091C737.087 130.8 736.422 131.345 735.561 131.725C734.7 132.105 733.674 132.295 732.483 132.295H728.436L729.804 130.946V136H726.726ZM735.181 136L731.856 131.174H735.143L738.506 136H735.181ZM729.804 131.288L728.436 129.844H732.312C733.262 129.844 733.971 129.641 734.44 129.236C734.909 128.818 735.143 128.248 735.143 127.526C735.143 126.791 734.909 126.221 734.44 125.816C733.971 125.411 733.262 125.208 732.312 125.208H728.436L729.804 123.745V131.288ZM743.529 128.058H749.932V130.452H743.529V128.058ZM743.757 133.53H750.996V136H740.698V122.7H750.749V125.17H743.757V133.53ZM757.815 136.228C756.751 136.228 755.731 136.089 754.756 135.81C753.78 135.519 752.995 135.145 752.4 134.689L753.445 132.371C754.015 132.776 754.686 133.112 755.459 133.378C756.244 133.631 757.036 133.758 757.834 133.758C758.442 133.758 758.929 133.701 759.297 133.587C759.677 133.46 759.955 133.289 760.133 133.074C760.31 132.859 760.399 132.612 760.399 132.333C760.399 131.978 760.259 131.7 759.981 131.497C759.702 131.282 759.335 131.111 758.879 130.984C758.423 130.845 757.916 130.718 757.359 130.604C756.814 130.477 756.263 130.325 755.706 130.148C755.161 129.971 754.661 129.743 754.205 129.464C753.749 129.185 753.375 128.818 753.084 128.362C752.805 127.906 752.666 127.323 752.666 126.614C752.666 125.854 752.868 125.164 753.274 124.543C753.692 123.91 754.312 123.409 755.136 123.042C755.972 122.662 757.017 122.472 758.271 122.472C759.107 122.472 759.93 122.573 760.741 122.776C761.551 122.966 762.267 123.257 762.888 123.65L761.938 125.987C761.317 125.632 760.696 125.373 760.076 125.208C759.455 125.031 758.847 124.942 758.252 124.942C757.656 124.942 757.169 125.012 756.789 125.151C756.409 125.29 756.136 125.474 755.972 125.702C755.807 125.917 755.725 126.171 755.725 126.462C755.725 126.804 755.864 127.083 756.143 127.298C756.421 127.501 756.789 127.665 757.245 127.792C757.701 127.919 758.201 128.045 758.746 128.172C759.303 128.299 759.854 128.444 760.399 128.609C760.956 128.774 761.463 128.995 761.919 129.274C762.375 129.553 762.742 129.92 763.021 130.376C763.312 130.832 763.458 131.408 763.458 132.105C763.458 132.852 763.249 133.536 762.831 134.157C762.413 134.778 761.786 135.278 760.95 135.658C760.126 136.038 759.081 136.228 757.815 136.228ZM771.47 136.228C769.583 136.228 768.107 135.702 767.043 134.651C765.979 133.6 765.447 132.099 765.447 130.148V122.7H768.525V130.034C768.525 131.301 768.785 132.213 769.304 132.77C769.823 133.327 770.552 133.606 771.489 133.606C772.426 133.606 773.155 133.327 773.674 132.77C774.193 132.213 774.453 131.301 774.453 130.034V122.7H777.493V130.148C777.493 132.099 776.961 133.6 775.897 134.651C774.833 135.702 773.357 136.228 771.47 136.228ZM780.535 136V122.7H783.081L788.743 132.086H787.394L792.961 122.7H795.488L795.526 136H792.638L792.619 127.127H793.151L788.705 134.594H787.318L782.777 127.127H783.423V136H780.535ZM801.512 128.058H807.915V130.452H801.512V128.058ZM801.74 133.53H808.979V136H798.681V122.7H808.732V125.17H801.74V133.53Z" fill="black"/>
<g clip-path="url(#clip0_102_24)">
<path d="M865.75 101.869C866.055 102.239 866.242 102.693 866.286 103.171C866.331 103.649 866.231 104.129 866 104.55C864.193 107.867 863.25 111.585 863.256 115.363C863.256 127.928 873.5 138.103 886.125 138.103C887.772 138.103 889.375 137.931 890.916 137.603C891.388 137.501 891.88 137.54 892.33 137.716C892.78 137.891 893.169 138.196 893.447 138.591C893.741 139.001 893.89 139.498 893.873 140.002C893.855 140.507 893.671 140.992 893.35 141.381C890.899 144.392 887.807 146.818 884.299 148.482C880.792 150.146 876.957 151.006 873.075 151C858.669 151 847 139.394 847 125.094C847 114.331 853.606 105.1 863.013 101.188C863.481 100.989 864.001 100.949 864.495 101.072C864.988 101.195 865.429 101.474 865.75 101.869V101.869ZM862.181 105.097C858.564 107.037 855.541 109.921 853.432 113.442C851.323 116.963 850.207 120.989 850.203 125.094C850.203 137.656 860.45 147.831 873.075 147.831C876.098 147.837 879.093 147.242 881.885 146.082C884.677 144.923 887.211 143.221 889.341 141.075C888.287 141.206 887.216 141.272 886.125 141.272C871.719 141.272 860.053 129.666 860.053 115.366C860.053 111.719 860.809 108.247 862.181 105.097V105.097Z" fill="black"/>
</g>
<path d="M164.263 120.7H167.341V134H164.263V120.7ZM158.221 134H155.143V120.7H158.221V134ZM164.491 128.547H157.993V125.944H164.491V128.547ZM176.948 134.228C175.897 134.228 174.921 134.057 174.022 133.715C173.135 133.373 172.363 132.892 171.704 132.271C171.058 131.65 170.551 130.922 170.184 130.086C169.829 129.25 169.652 128.338 169.652 127.35C169.652 126.362 169.829 125.45 170.184 124.614C170.551 123.778 171.064 123.05 171.723 122.429C172.382 121.808 173.154 121.327 174.041 120.985C174.928 120.643 175.89 120.472 176.929 120.472C177.98 120.472 178.943 120.643 179.817 120.985C180.704 121.327 181.47 121.808 182.116 122.429C182.775 123.05 183.288 123.778 183.655 124.614C184.022 125.437 184.206 126.349 184.206 127.35C184.206 128.338 184.022 129.256 183.655 130.105C183.288 130.941 182.775 131.669 182.116 132.29C181.47 132.898 180.704 133.373 179.817 133.715C178.943 134.057 177.987 134.228 176.948 134.228ZM176.929 131.606C177.524 131.606 178.069 131.505 178.563 131.302C179.07 131.099 179.513 130.808 179.893 130.428C180.273 130.048 180.564 129.598 180.767 129.079C180.982 128.56 181.09 127.983 181.09 127.35C181.09 126.717 180.982 126.14 180.767 125.621C180.564 125.102 180.273 124.652 179.893 124.272C179.526 123.892 179.089 123.601 178.582 123.398C178.075 123.195 177.524 123.094 176.929 123.094C176.334 123.094 175.783 123.195 175.276 123.398C174.782 123.601 174.345 123.892 173.965 124.272C173.585 124.652 173.287 125.102 173.072 125.621C172.869 126.14 172.768 126.717 172.768 127.35C172.768 127.971 172.869 128.547 173.072 129.079C173.287 129.598 173.579 130.048 173.946 130.428C174.326 130.808 174.769 131.099 175.276 131.302C175.783 131.505 176.334 131.606 176.929 131.606ZM186.519 134V120.7H189.065L194.727 130.086H193.378L198.945 120.7H201.472L201.51 134H198.622L198.603 125.127H199.135L194.689 132.594H193.302L188.761 125.127H189.407V134H186.519ZM207.497 126.058H213.9V128.452H207.497V126.058ZM207.725 131.53H214.964V134H204.666V120.7H214.717V123.17H207.725V131.53Z" fill="black"/>
<rect width="34.8285" height="3.32857" rx="1.66429" transform="matrix(0.79107 -0.611726 0.825893 0.563826 123 133.306)" fill="black"/>
<rect width="34.9681" height="3.31569" rx="1.65784" transform="matrix(0.798548 0.601932 -0.819096 0.573656 126.006 122.05)" fill="black"/>
<rect width="34.8285" height="3.32857" rx="1.66429" transform="matrix(-0.79107 0.611726 -0.825893 -0.563826 265.442 124.016)" fill="black"/>
<rect width="41.0873" height="3.2885" rx="1.64425" transform="matrix(-0.409741 0.912202 -0.996002 -0.0893296 233.253 109.294)" fill="black"/>
<rect width="34.9681" height="3.31569" rx="1.65784" transform="matrix(-0.798548 -0.601932 0.819096 -0.573656 262.436 135.272)" fill="black"/>
<path d="M286.028 135L291.956 121.7H294.996L300.943 135H297.713L292.849 123.258H294.065L289.182 135H286.028ZM288.992 132.15L289.809 129.813H296.649L297.485 132.15H288.992ZM302.323 135V121.7H308.821C310.493 121.7 311.747 122.017 312.583 122.65C313.431 123.283 313.856 124.119 313.856 125.158C313.856 125.855 313.685 126.463 313.343 126.982C313.001 127.489 312.532 127.881 311.937 128.16C311.341 128.439 310.657 128.578 309.885 128.578L310.246 127.799C311.082 127.799 311.823 127.938 312.469 128.217C313.115 128.483 313.615 128.882 313.97 129.414C314.337 129.946 314.521 130.598 314.521 131.371C314.521 132.511 314.071 133.404 313.172 134.05C312.272 134.683 310.949 135 309.201 135H302.323ZM305.382 132.682H308.973C309.771 132.682 310.372 132.555 310.778 132.302C311.196 132.036 311.405 131.618 311.405 131.048C311.405 130.491 311.196 130.079 310.778 129.813C310.372 129.534 309.771 129.395 308.973 129.395H305.154V127.153H308.441C309.188 127.153 309.758 127.026 310.151 126.773C310.556 126.507 310.759 126.108 310.759 125.576C310.759 125.057 310.556 124.67 310.151 124.417C309.758 124.151 309.188 124.018 308.441 124.018H305.382V132.682ZM323.311 135.228C322.26 135.228 321.284 135.057 320.385 134.715C319.498 134.373 318.726 133.892 318.067 133.271C317.421 132.65 316.914 131.922 316.547 131.086C316.192 130.25 316.015 129.338 316.015 128.35C316.015 127.362 316.192 126.45 316.547 125.614C316.914 124.778 317.427 124.05 318.086 123.429C318.745 122.808 319.517 122.327 320.404 121.985C321.291 121.643 322.253 121.472 323.292 121.472C324.343 121.472 325.306 121.643 326.18 121.985C327.067 122.327 327.833 122.808 328.479 123.429C329.138 124.05 329.651 124.778 330.018 125.614C330.385 126.437 330.569 127.349 330.569 128.35C330.569 129.338 330.385 130.256 330.018 131.105C329.651 131.941 329.138 132.669 328.479 133.29C327.833 133.898 327.067 134.373 326.18 134.715C325.306 135.057 324.35 135.228 323.311 135.228ZM323.292 132.606C323.887 132.606 324.432 132.505 324.926 132.302C325.433 132.099 325.876 131.808 326.256 131.428C326.636 131.048 326.927 130.598 327.13 130.079C327.345 129.56 327.453 128.983 327.453 128.35C327.453 127.717 327.345 127.14 327.13 126.621C326.927 126.102 326.636 125.652 326.256 125.272C325.889 124.892 325.452 124.601 324.945 124.398C324.438 124.195 323.887 124.094 323.292 124.094C322.697 124.094 322.146 124.195 321.639 124.398C321.145 124.601 320.708 124.892 320.328 125.272C319.948 125.652 319.65 126.102 319.435 126.621C319.232 127.14 319.131 127.717 319.131 128.35C319.131 128.971 319.232 129.547 319.435 130.079C319.65 130.598 319.942 131.048 320.309 131.428C320.689 131.808 321.132 132.099 321.639 132.302C322.146 132.505 322.697 132.606 323.292 132.606ZM338.791 135.228C336.904 135.228 335.428 134.702 334.364 133.651C333.3 132.6 332.768 131.099 332.768 129.148V121.7H335.846V129.034C335.846 130.301 336.106 131.213 336.625 131.77C337.145 132.327 337.873 132.606 338.81 132.606C339.748 132.606 340.476 132.327 340.995 131.77C341.515 131.213 341.774 130.301 341.774 129.034V121.7H344.814V129.148C344.814 131.099 344.282 132.6 343.218 133.651C342.154 134.702 340.679 135.228 338.791 135.228ZM350.388 135V124.208H346.132V121.7H357.722V124.208H353.466V135H350.388Z" fill="black"/>
<path d="M390.05 135V121.7H395.807C396.997 121.7 398.023 121.896 398.885 122.289C399.746 122.669 400.411 123.22 400.88 123.942C401.348 124.664 401.583 125.525 401.583 126.526C401.583 127.514 401.348 128.369 400.88 129.091C400.411 129.813 399.746 130.37 398.885 130.763C398.023 131.143 396.997 131.333 395.807 131.333H391.76L393.128 129.946V135H390.05ZM393.128 130.288L391.76 128.825H395.636C396.586 128.825 397.295 128.622 397.764 128.217C398.232 127.812 398.467 127.248 398.467 126.526C398.467 125.791 398.232 125.221 397.764 124.816C397.295 124.411 396.586 124.208 395.636 124.208H391.76L393.128 122.745V130.288ZM403.78 135V121.7H409.537C410.728 121.7 411.754 121.896 412.615 122.289C413.476 122.669 414.141 123.22 414.61 123.942C415.079 124.664 415.313 125.525 415.313 126.526C415.313 127.514 415.079 128.369 414.61 129.091C414.141 129.8 413.476 130.345 412.615 130.725C411.754 131.105 410.728 131.295 409.537 131.295H405.49L406.858 129.946V135H403.78ZM412.235 135L408.91 130.174H412.197L415.56 135H412.235ZM406.858 130.288L405.49 128.844H409.366C410.316 128.844 411.025 128.641 411.494 128.236C411.963 127.818 412.197 127.248 412.197 126.526C412.197 125.791 411.963 125.221 411.494 124.816C411.025 124.411 410.316 124.208 409.366 124.208H405.49L406.858 122.745V130.288ZM424.212 135.228C423.16 135.228 422.185 135.057 421.286 134.715C420.399 134.373 419.626 133.892 418.968 133.271C418.322 132.65 417.815 131.922 417.448 131.086C417.093 130.25 416.916 129.338 416.916 128.35C416.916 127.362 417.093 126.45 417.448 125.614C417.815 124.778 418.328 124.05 418.987 123.429C419.645 122.808 420.418 122.327 421.305 121.985C422.191 121.643 423.154 121.472 424.193 121.472C425.244 121.472 426.207 121.643 427.081 121.985C427.967 122.327 428.734 122.808 429.38 123.429C430.038 124.05 430.551 124.778 430.919 125.614C431.286 126.437 431.47 127.349 431.47 128.35C431.47 129.338 431.286 130.256 430.919 131.105C430.551 131.941 430.038 132.669 429.38 133.29C428.734 133.898 427.967 134.373 427.081 134.715C426.207 135.057 425.25 135.228 424.212 135.228ZM424.193 132.606C424.788 132.606 425.333 132.505 425.827 132.302C426.333 132.099 426.777 131.808 427.157 131.428C427.537 131.048 427.828 130.598 428.031 130.079C428.246 129.56 428.354 128.983 428.354 128.35C428.354 127.717 428.246 127.14 428.031 126.621C427.828 126.102 427.537 125.652 427.157 125.272C426.789 124.892 426.352 124.601 425.846 124.398C425.339 124.195 424.788 124.094 424.193 124.094C423.597 124.094 423.046 124.195 422.54 124.398C422.046 124.601 421.609 124.892 421.229 125.272C420.849 125.652 420.551 126.102 420.336 126.621C420.133 127.14 420.032 127.717 420.032 128.35C420.032 128.971 420.133 129.547 420.336 130.079C420.551 130.598 420.842 131.048 421.21 131.428C421.59 131.808 422.033 132.099 422.54 132.302C423.046 132.505 423.597 132.606 424.193 132.606ZM435.956 135.228C435.056 135.228 434.227 135.063 433.467 134.734C432.719 134.392 432.105 133.911 431.624 133.29L433.334 131.238C433.701 131.719 434.087 132.087 434.493 132.34C434.898 132.581 435.335 132.701 435.804 132.701C437.058 132.701 437.685 131.966 437.685 130.497V124.17H433.011V121.7H440.744V130.326C440.744 131.973 440.338 133.201 439.528 134.012C438.717 134.823 437.526 135.228 435.956 135.228ZM446.615 127.058H453.018V129.452H446.615V127.058ZM446.843 132.53H454.082V135H443.784V121.7H453.835V124.17H446.843V132.53ZM462.896 135.228C461.87 135.228 460.914 135.063 460.027 134.734C459.153 134.392 458.393 133.911 457.747 133.29C457.101 132.669 456.594 131.941 456.227 131.105C455.872 130.269 455.695 129.351 455.695 128.35C455.695 127.349 455.872 126.431 456.227 125.595C456.594 124.759 457.101 124.031 457.747 123.41C458.406 122.789 459.172 122.314 460.046 121.985C460.92 121.643 461.876 121.472 462.915 121.472C464.068 121.472 465.106 121.675 466.031 122.08C466.968 122.473 467.754 123.055 468.387 123.828L466.411 125.652C465.955 125.133 465.448 124.746 464.891 124.493C464.334 124.227 463.726 124.094 463.067 124.094C462.446 124.094 461.876 124.195 461.357 124.398C460.838 124.601 460.388 124.892 460.008 125.272C459.628 125.652 459.33 126.102 459.115 126.621C458.912 127.14 458.811 127.717 458.811 128.35C458.811 128.983 458.912 129.56 459.115 130.079C459.33 130.598 459.628 131.048 460.008 131.428C460.388 131.808 460.838 132.099 461.357 132.302C461.876 132.505 462.446 132.606 463.067 132.606C463.726 132.606 464.334 132.479 464.891 132.226C465.448 131.96 465.955 131.561 466.411 131.029L468.387 132.853C467.754 133.626 466.968 134.215 466.031 134.62C465.106 135.025 464.061 135.228 462.896 135.228ZM473.091 135V124.208H468.835V121.7H480.425V124.208H476.169V135H473.091ZM486.358 135.228C485.294 135.228 484.274 135.089 483.299 134.81C482.324 134.519 481.538 134.145 480.943 133.689L481.988 131.371C482.558 131.776 483.229 132.112 484.002 132.378C484.787 132.631 485.579 132.758 486.377 132.758C486.985 132.758 487.473 132.701 487.84 132.587C488.22 132.46 488.499 132.289 488.676 132.074C488.853 131.859 488.942 131.612 488.942 131.333C488.942 130.978 488.803 130.7 488.524 130.497C488.245 130.282 487.878 130.111 487.422 129.984C486.966 129.845 486.459 129.718 485.902 129.604C485.357 129.477 484.806 129.325 484.249 129.148C483.704 128.971 483.204 128.743 482.748 128.464C482.292 128.185 481.918 127.818 481.627 127.362C481.348 126.906 481.209 126.323 481.209 125.614C481.209 124.854 481.412 124.164 481.817 123.543C482.235 122.91 482.856 122.409 483.679 122.042C484.515 121.662 485.56 121.472 486.814 121.472C487.65 121.472 488.473 121.573 489.284 121.776C490.095 121.966 490.81 122.257 491.431 122.65L490.481 124.987C489.86 124.632 489.24 124.373 488.619 124.208C487.998 124.031 487.39 123.942 486.795 123.942C486.2 123.942 485.712 124.012 485.332 124.151C484.952 124.29 484.68 124.474 484.515 124.702C484.35 124.917 484.268 125.171 484.268 125.462C484.268 125.804 484.407 126.083 484.686 126.298C484.965 126.501 485.332 126.665 485.788 126.792C486.244 126.919 486.744 127.045 487.289 127.172C487.846 127.299 488.397 127.444 488.942 127.609C489.499 127.774 490.006 127.995 490.462 128.274C490.918 128.553 491.285 128.92 491.564 129.376C491.855 129.832 492.001 130.408 492.001 131.105C492.001 131.852 491.792 132.536 491.374 133.157C490.956 133.778 490.329 134.278 489.493 134.658C488.67 135.038 487.625 135.228 486.358 135.228Z" fill="black"/>
<path d="M513.242 134.228C512.178 134.228 511.159 134.089 510.183 133.81C509.208 133.519 508.423 133.145 507.827 132.689L508.872 130.371C509.442 130.776 510.114 131.112 510.886 131.378C511.672 131.631 512.463 131.758 513.261 131.758C513.869 131.758 514.357 131.701 514.724 131.587C515.104 131.46 515.383 131.289 515.56 131.074C515.738 130.859 515.826 130.612 515.826 130.333C515.826 129.978 515.687 129.7 515.408 129.497C515.13 129.282 514.762 129.111 514.306 128.984C513.85 128.845 513.344 128.718 512.786 128.604C512.242 128.477 511.691 128.325 511.133 128.148C510.589 127.971 510.088 127.743 509.632 127.464C509.176 127.185 508.803 126.818 508.511 126.362C508.233 125.906 508.093 125.323 508.093 124.614C508.093 123.854 508.296 123.164 508.701 122.543C509.119 121.91 509.74 121.409 510.563 121.042C511.399 120.662 512.444 120.472 513.698 120.472C514.534 120.472 515.358 120.573 516.168 120.776C516.979 120.966 517.695 121.257 518.315 121.65L517.365 123.987C516.745 123.632 516.124 123.373 515.503 123.208C514.883 123.031 514.275 122.942 513.679 122.942C513.084 122.942 512.596 123.012 512.216 123.151C511.836 123.29 511.564 123.474 511.399 123.702C511.235 123.917 511.152 124.171 511.152 124.462C511.152 124.804 511.292 125.083 511.57 125.298C511.849 125.501 512.216 125.665 512.672 125.792C513.128 125.919 513.629 126.045 514.173 126.172C514.731 126.299 515.282 126.444 515.826 126.609C516.384 126.774 516.89 126.995 517.346 127.274C517.802 127.553 518.17 127.92 518.448 128.376C518.74 128.832 518.885 129.408 518.885 130.105C518.885 130.852 518.676 131.536 518.258 132.157C517.84 132.778 517.213 133.278 516.377 133.658C515.554 134.038 514.509 134.228 513.242 134.228ZM523.744 130.96L523.573 127.407L529.938 120.7H533.358L527.62 126.875L525.91 128.699L523.744 130.96ZM520.989 134V120.7H524.048V134H520.989ZM530.09 134L525.359 128.205L527.373 126.02L533.681 134H530.09ZM535.053 134V120.7H538.131V134H535.053ZM541.287 134V120.7H544.365V131.492H551.034V134H541.287ZM552.754 134V120.7H555.832V131.492H562.501V134H552.754ZM568.535 134.228C567.471 134.228 566.452 134.089 565.476 133.81C564.501 133.519 563.716 133.145 563.12 132.689L564.165 130.371C564.735 130.776 565.407 131.112 566.179 131.378C566.965 131.631 567.756 131.758 568.554 131.758C569.162 131.758 569.65 131.701 570.017 131.587C570.397 131.46 570.676 131.289 570.853 131.074C571.031 130.859 571.119 130.612 571.119 130.333C571.119 129.978 570.98 129.7 570.701 129.497C570.423 129.282 570.055 129.111 569.599 128.984C569.143 128.845 568.637 128.718 568.079 128.604C567.535 128.477 566.984 128.325 566.426 128.148C565.882 127.971 565.381 127.743 564.925 127.464C564.469 127.185 564.096 126.818 563.804 126.362C563.526 125.906 563.386 125.323 563.386 124.614C563.386 123.854 563.589 123.164 563.994 122.543C564.412 121.91 565.033 121.409 565.856 121.042C566.692 120.662 567.737 120.472 568.991 120.472C569.827 120.472 570.651 120.573 571.461 120.776C572.272 120.966 572.988 121.257 573.608 121.65L572.658 123.987C572.038 123.632 571.417 123.373 570.796 123.208C570.176 123.031 569.568 122.942 568.972 122.942C568.377 122.942 567.889 123.012 567.509 123.151C567.129 123.29 566.857 123.474 566.692 123.702C566.528 123.917 566.445 124.171 566.445 124.462C566.445 124.804 566.585 125.083 566.863 125.298C567.142 125.501 567.509 125.665 567.965 125.792C568.421 125.919 568.922 126.045 569.466 126.172C570.024 126.299 570.575 126.444 571.119 126.609C571.677 126.774 572.183 126.995 572.639 127.274C573.095 127.553 573.463 127.92 573.741 128.376C574.033 128.832 574.178 129.408 574.178 130.105C574.178 130.852 573.969 131.536 573.551 132.157C573.133 132.778 572.506 133.278 571.67 133.658C570.847 134.038 569.802 134.228 568.535 134.228Z" fill="black"/>
<path d="M611.432 135.228C610.406 135.228 609.449 135.064 608.563 134.734C607.689 134.392 606.929 133.911 606.283 133.29C605.637 132.67 605.13 131.941 604.763 131.105C604.408 130.269 604.231 129.351 604.231 128.35C604.231 127.35 604.408 126.431 604.763 125.595C605.13 124.759 605.637 124.031 606.283 123.41C606.941 122.79 607.708 122.315 608.582 121.985C609.456 121.643 610.412 121.472 611.451 121.472C612.603 121.472 613.642 121.675 614.567 122.08C615.504 122.473 616.289 123.056 616.923 123.828L614.947 125.652C614.491 125.133 613.984 124.747 613.427 124.493C612.869 124.227 612.261 124.094 611.603 124.094C610.982 124.094 610.412 124.196 609.893 124.398C609.373 124.601 608.924 124.892 608.544 125.272C608.164 125.652 607.866 126.102 607.651 126.621C607.448 127.141 607.347 127.717 607.347 128.35C607.347 128.984 607.448 129.56 607.651 130.079C607.866 130.599 608.164 131.048 608.544 131.428C608.924 131.808 609.373 132.1 609.893 132.302C610.412 132.505 610.982 132.606 611.603 132.606C612.261 132.606 612.869 132.48 613.427 132.226C613.984 131.96 614.491 131.561 614.947 131.029L616.923 132.853C616.289 133.626 615.504 134.215 614.567 134.62C613.642 135.026 612.597 135.228 611.432 135.228ZM625.183 135.228C624.132 135.228 623.156 135.057 622.257 134.715C621.37 134.373 620.598 133.892 619.939 133.271C619.293 132.651 618.786 131.922 618.419 131.086C618.064 130.25 617.887 129.338 617.887 128.35C617.887 127.362 618.064 126.45 618.419 125.614C618.786 124.778 619.299 124.05 619.958 123.429C620.617 122.809 621.389 122.327 622.276 121.985C623.163 121.643 624.125 121.472 625.164 121.472C626.215 121.472 627.178 121.643 628.052 121.985C628.939 122.327 629.705 122.809 630.351 123.429C631.01 124.05 631.523 124.778 631.89 125.614C632.257 126.438 632.441 127.35 632.441 128.35C632.441 129.338 632.257 130.257 631.89 131.105C631.523 131.941 631.01 132.67 630.351 133.29C629.705 133.898 628.939 134.373 628.052 134.715C627.178 135.057 626.222 135.228 625.183 135.228ZM625.164 132.606C625.759 132.606 626.304 132.505 626.798 132.302C627.305 132.1 627.748 131.808 628.128 131.428C628.508 131.048 628.799 130.599 629.002 130.079C629.217 129.56 629.325 128.984 629.325 128.35C629.325 127.717 629.217 127.141 629.002 126.621C628.799 126.102 628.508 125.652 628.128 125.272C627.761 124.892 627.324 124.601 626.817 124.398C626.31 124.196 625.759 124.094 625.164 124.094C624.569 124.094 624.018 124.196 623.511 124.398C623.017 124.601 622.58 124.892 622.2 125.272C621.82 125.652 621.522 126.102 621.307 126.621C621.104 127.141 621.003 127.717 621.003 128.35C621.003 128.971 621.104 129.547 621.307 130.079C621.522 130.599 621.814 131.048 622.181 131.428C622.561 131.808 623.004 132.1 623.511 132.302C624.018 132.505 624.569 132.606 625.164 132.606ZM634.754 135V121.7H637.3L645.147 131.276H643.912V121.7H646.952V135H644.425L636.559 125.424H637.794V135H634.754ZM652.854 135V124.208H648.598V121.7H660.188V124.208H655.932V135H652.854ZM659.428 135L665.356 121.7H668.396L674.343 135H671.113L666.249 123.258H667.465L662.582 135H659.428ZM662.392 132.15L663.209 129.813H670.049L670.885 132.15H662.392ZM681.902 135.228C680.876 135.228 679.92 135.064 679.033 134.734C678.159 134.392 677.399 133.911 676.753 133.29C676.107 132.67 675.601 131.941 675.233 131.105C674.879 130.269 674.701 129.351 674.701 128.35C674.701 127.35 674.879 126.431 675.233 125.595C675.601 124.759 676.107 124.031 676.753 123.41C677.412 122.79 678.178 122.315 679.052 121.985C679.926 121.643 680.883 121.472 681.921 121.472C683.074 121.472 684.113 121.675 685.037 122.08C685.975 122.473 686.76 123.056 687.393 123.828L685.417 125.652C684.961 125.133 684.455 124.747 683.897 124.493C683.34 124.227 682.732 124.094 682.073 124.094C681.453 124.094 680.883 124.196 680.363 124.398C679.844 124.601 679.394 124.892 679.014 125.272C678.634 125.652 678.337 126.102 678.121 126.621C677.919 127.141 677.817 127.717 677.817 128.35C677.817 128.984 677.919 129.56 678.121 130.079C678.337 130.599 678.634 131.048 679.014 131.428C679.394 131.808 679.844 132.1 680.363 132.302C680.883 132.505 681.453 132.606 682.073 132.606C682.732 132.606 683.34 132.48 683.897 132.226C684.455 131.96 684.961 131.561 685.417 131.029L687.393 132.853C686.76 133.626 685.975 134.215 685.037 134.62C684.113 135.026 683.068 135.228 681.902 135.228ZM692.097 135V124.208H687.841V121.7H699.431V124.208H695.175V135H692.097Z" fill="black"/>
<defs>
<clipPath id="clip0_102_24">
<rect width="50" height="50" fill="white" transform="translate(847 101)"/>
</clipPath>
</defs>
</svg>
