<svg width="100" height="100" viewBox="0 0 100 100" fill="none" xmlns="http://www.w3.org/2000/svg">
<rect width="100" height="100" rx="50" fill="#D9D9D9"/>
<rect width="3.92691" height="42.9415" rx="1.96345" transform="matrix(0.562195 0.827005 -0.694588 0.719408 32.2405 25.4006)" fill="#796363"/>
<path d="M32.1156 27.2644L4.06026 56.1829C3.64376 56.6122 3.57192 57.2695 3.88585 57.7787C4.33727 58.5108 5.36069 58.6147 5.95002 57.9882L33.5557 28.6402C33.864 28.3123 33.9142 27.8183 33.678 27.4352C33.3373 26.8827 32.5675 26.7986 32.1156 27.2644Z" fill="black" stroke="black"/>
<rect width="4.44862" height="43.65" rx="2.22431" transform="matrix(0.562195 -0.827005 0.694588 0.719408 0 43.0652)" fill="#796363"/>
<path d="M29.3968 72.6206L1.26384 43.7847C0.863309 43.3742 0.838934 42.727 1.20745 42.2875C1.63065 41.7827 2.39653 41.7521 2.85871 42.2214L31.1268 70.925C31.5407 71.3453 31.5916 72.0027 31.2473 72.4817C30.8078 73.0932 29.9227 73.1597 29.3968 72.6206Z" fill="black" stroke="black"/>
<rect width="4.17042" height="43.5913" rx="2.08521" transform="matrix(-0.557238 0.830353 -0.69921 -0.714916 98.0081 58.1171)" fill="#796363"/>
<path d="M94.1455 59.3156L66.532 31.5287C66.1796 31.1741 66.134 30.6171 66.4242 30.21C66.7905 29.6961 67.5294 29.6315 67.9793 30.0741L95.9043 57.5479C96.3348 57.9714 96.3999 58.6425 96.0589 59.1408C95.6172 59.7864 94.6969 59.8705 94.1455 59.3156Z" fill="black" stroke="black"/>
<rect width="4.71921" height="42.9993" rx="2.35961" transform="matrix(-0.567144 -0.823618 0.689949 -0.723858 70.333 76.1959)" fill="#796363"/>
<path d="M71.7313 74.0182L98.7206 45.9981C99.1411 45.5615 99.2002 44.8909 98.8627 44.3875C98.4087 43.7107 97.4481 43.6204 96.8761 44.2009L69.5683 71.9108C69.0701 72.4164 68.9912 73.2008 69.3789 73.7954C69.9091 74.6086 71.0578 74.7174 71.7313 74.0182Z" fill="black" stroke="black"/>
<rect width="4.23442" height="30.6727" rx="2.11721" transform="matrix(0.907558 0.419928 -0.290586 0.956849 47.7041 48.8727)" fill="#796363"/>
<path d="M39.9013 76.7741L47.7218 51.0614C47.89 50.5086 48.5176 50.2429 49.0315 50.507C49.4304 50.7119 49.6252 51.1731 49.4941 51.6019L41.6362 77.3032C41.4784 77.819 40.908 78.084 40.412 77.8717C39.9868 77.6896 39.7667 77.2167 39.9013 76.7741Z" fill="black" stroke="black"/>
<rect width="4.2398" height="30.6463" rx="2.1199" transform="matrix(-0.904017 -0.427497 0.296426 -0.955056 51.4084 51.0815)" fill="#796363"/>
<path d="M51.6552 48.9608L59.5571 23.0214C59.6805 22.6164 59.469 22.185 59.0732 22.0346C58.6397 21.8699 58.1571 22.1046 58.019 22.5472L53.9971 35.4371L49.9422 48.4326C49.8137 48.8447 49.997 49.2898 50.3785 49.4918C50.8764 49.7553 51.4911 49.4997 51.6552 48.9608Z" fill="black" stroke="black"/>
</svg>
