<svg width="77" height="47" viewBox="0 0 77 47" fill="none" xmlns="http://www.w3.org/2000/svg">
<g filter="url(#filter0_i_101_3)">
<path d="M24.752 46.768C21.296 46.768 18.0747 46.2133 15.088 45.104C12.144 43.952 9.584 42.3307 7.408 40.24C5.232 38.1493 3.52533 35.696 2.288 32.88C1.09333 30.064 0.496 26.9707 0.496 23.6C0.496 20.2293 1.09333 17.136 2.288 14.32C3.52533 11.504 5.232 9.05066 7.408 6.96C9.62667 4.86933 12.208 3.26933 15.152 2.16C18.096 1.008 21.3173 0.431999 24.816 0.431999C28.6987 0.431999 32.1973 1.11467 35.312 2.48C38.4693 3.80266 41.1147 5.76533 43.248 8.368L36.592 14.512C35.056 12.7627 33.3493 11.4613 31.472 10.608C29.5947 9.712 27.5467 9.264 25.328 9.264C23.2373 9.264 21.3173 9.60533 19.568 10.288C17.8187 10.9707 16.304 11.952 15.024 13.232C13.744 14.512 12.7413 16.0267 12.016 17.776C11.3333 19.5253 10.992 21.4667 10.992 23.6C10.992 25.7333 11.3333 27.6747 12.016 29.424C12.7413 31.1733 13.744 32.688 15.024 33.968C16.304 35.248 17.8187 36.2293 19.568 36.912C21.3173 37.5947 23.2373 37.936 25.328 37.936C27.5467 37.936 29.5947 37.5093 31.472 36.656C33.3493 35.76 35.056 34.416 36.592 32.624L43.248 38.768C41.1147 41.3707 38.4693 43.3547 35.312 44.72C32.1973 46.0853 28.6773 46.768 24.752 46.768ZM52.7625 46.3C51.3625 46.3 50.0208 46.1167 48.7375 45.75C47.4542 45.3667 46.4208 44.875 45.6375 44.275L47.0125 41.225C47.7625 41.7583 48.6458 42.2 49.6625 42.55C50.6958 42.8833 51.7375 43.05 52.7875 43.05C53.5875 43.05 54.2292 42.975 54.7125 42.825C55.2125 42.6583 55.5792 42.4333 55.8125 42.15C56.0458 41.8667 56.1625 41.5417 56.1625 41.175C56.1625 40.7083 55.9792 40.3417 55.6125 40.075C55.2458 39.7917 54.7625 39.5667 54.1625 39.4C53.5625 39.2167 52.8958 39.05 52.1625 38.9C51.4458 38.7333 50.7208 38.5333 49.9875 38.3C49.2708 38.0667 48.6125 37.7667 48.0125 37.4C47.4125 37.0333 46.9208 36.55 46.5375 35.95C46.1708 35.35 45.9875 34.5833 45.9875 33.65C45.9875 32.65 46.2542 31.7417 46.7875 30.925C47.3375 30.0917 48.1542 29.4333 49.2375 28.95C50.3375 28.45 51.7125 28.2 53.3625 28.2C54.4625 28.2 55.5458 28.3333 56.6125 28.6C57.6792 28.85 58.6208 29.2333 59.4375 29.75L58.1875 32.825C57.3708 32.3583 56.5542 32.0167 55.7375 31.8C54.9208 31.5667 54.1208 31.45 53.3375 31.45C52.5542 31.45 51.9125 31.5417 51.4125 31.725C50.9125 31.9083 50.5542 32.15 50.3375 32.45C50.1208 32.7333 50.0125 33.0667 50.0125 33.45C50.0125 33.9 50.1958 34.2667 50.5625 34.55C50.9292 34.8167 51.4125 35.0333 52.0125 35.2C52.6125 35.3667 53.2708 35.5333 53.9875 35.7C54.7208 35.8667 55.4458 36.0583 56.1625 36.275C56.8958 36.4917 57.5625 36.7833 58.1625 37.15C58.7625 37.5167 59.2458 38 59.6125 38.6C59.9958 39.2 60.1875 39.9583 60.1875 40.875C60.1875 41.8583 59.9125 42.7583 59.3625 43.575C58.8125 44.3917 57.9875 45.05 56.8875 45.55C55.8042 46.05 54.4292 46.3 52.7625 46.3ZM68.7049 46.3C67.3049 46.3 65.9632 46.1167 64.6799 45.75C63.3965 45.3667 62.3632 44.875 61.5799 44.275L62.9549 41.225C63.7049 41.7583 64.5882 42.2 65.6049 42.55C66.6382 42.8833 67.6799 43.05 68.7299 43.05C69.5299 43.05 70.1716 42.975 70.6549 42.825C71.1549 42.6583 71.5216 42.4333 71.7549 42.15C71.9882 41.8667 72.1049 41.5417 72.1049 41.175C72.1049 40.7083 71.9216 40.3417 71.5549 40.075C71.1882 39.7917 70.7049 39.5667 70.1049 39.4C69.5049 39.2167 68.8382 39.05 68.1049 38.9C67.3882 38.7333 66.6632 38.5333 65.9299 38.3C65.2132 38.0667 64.5549 37.7667 63.9549 37.4C63.3549 37.0333 62.8632 36.55 62.4799 35.95C62.1132 35.35 61.9299 34.5833 61.9299 33.65C61.9299 32.65 62.1965 31.7417 62.7299 30.925C63.2799 30.0917 64.0965 29.4333 65.1799 28.95C66.2799 28.45 67.6549 28.2 69.3049 28.2C70.4049 28.2 71.4882 28.3333 72.5549 28.6C73.6215 28.85 74.5632 29.2333 75.3799 29.75L74.1299 32.825C73.3132 32.3583 72.4966 32.0167 71.6799 31.8C70.8632 31.5667 70.0632 31.45 69.2799 31.45C68.4965 31.45 67.8549 31.5417 67.3549 31.725C66.8549 31.9083 66.4965 32.15 66.2799 32.45C66.0632 32.7333 65.9549 33.0667 65.9549 33.45C65.9549 33.9 66.1382 34.2667 66.5049 34.55C66.8715 34.8167 67.3549 35.0333 67.9549 35.2C68.5549 35.3667 69.2132 35.5333 69.9299 35.7C70.6632 35.8667 71.3882 36.0583 72.1049 36.275C72.8382 36.4917 73.5049 36.7833 74.1049 37.15C74.7049 37.5167 75.1882 38 75.5549 38.6C75.9382 39.2 76.1299 39.9583 76.1299 40.875C76.1299 41.8583 75.8549 42.7583 75.3049 43.575C74.7549 44.3917 73.9299 45.05 72.8299 45.55C71.7465 46.05 70.3715 46.3 68.7049 46.3Z" fill="#264DE4"/>
</g>
<defs>
<filter id="filter0_i_101_3" x="0.496094" y="0.431885" width="75.6338" height="50.3362" filterUnits="userSpaceOnUse" color-interpolation-filters="sRGB">
<feFlood flood-opacity="0" result="BackgroundImageFix"/>
<feBlend mode="normal" in="SourceGraphic" in2="BackgroundImageFix" result="shape"/>
<feColorMatrix in="SourceAlpha" type="matrix" values="0 0 0 0 0 0 0 0 0 0 0 0 0 0 0 0 0 0 127 0" result="hardAlpha"/>
<feOffset dy="4"/>
<feGaussianBlur stdDeviation="2"/>
<feComposite in2="hardAlpha" operator="arithmetic" k2="-1" k3="1"/>
<feColorMatrix type="matrix" values="0 0 0 0 0 0 0 0 0 0 0 0 0 0 0 0 0 0 0.25 0"/>
<feBlend mode="normal" in2="shape" result="effect1_innerShadow_101_3"/>
</filter>
</defs>
</svg>
