<svg width="107" height="46" viewBox="0 0 107 46" fill="none" xmlns="http://www.w3.org/2000/svg">
<g filter="url(#filter0_i_101_3)">
<path d="M9.912 20.36H31.416V28.68H9.912V20.36ZM10.68 45H0.312V0.199997H34.168V8.52H10.68V45Z" fill="#F24E1E"/>
<path d="M37.95 45V27.5H42V45H37.95Z" fill="#A259FF"/>
<path d="M54.6031 45.3C53.2198 45.3 51.9448 45.0833 50.7781 44.65C49.6281 44.2 48.6198 43.5667 47.7531 42.75C46.9031 41.9333 46.2365 40.975 45.7531 39.875C45.2865 38.775 45.0531 37.5667 45.0531 36.25C45.0531 34.9333 45.2865 33.725 45.7531 32.625C46.2365 31.525 46.9115 30.5667 47.7781 29.75C48.6448 28.9333 49.6615 28.3083 50.8281 27.875C51.9948 27.425 53.2781 27.2 54.6781 27.2C56.2281 27.2 57.6198 27.4583 58.8531 27.975C60.1031 28.4917 61.1531 29.2417 62.0031 30.225L59.4031 32.625C58.7698 31.9583 58.0781 31.4667 57.3281 31.15C56.5781 30.8167 55.7615 30.65 54.8781 30.65C54.0281 30.65 53.2531 30.7833 52.5531 31.05C51.8531 31.3167 51.2448 31.7 50.7281 32.2C50.2281 32.7 49.8365 33.2917 49.5531 33.975C49.2865 34.6583 49.1531 35.4167 49.1531 36.25C49.1531 37.0667 49.2865 37.8167 49.5531 38.5C49.8365 39.1833 50.2281 39.7833 50.7281 40.3C51.2448 40.8 51.8448 41.1833 52.5281 41.45C53.2281 41.7167 53.9948 41.85 54.8281 41.85C55.6281 41.85 56.4031 41.725 57.1531 41.475C57.9198 41.2083 58.6615 40.7667 59.3781 40.15L61.6781 43.075C60.7281 43.7917 59.6198 44.3417 58.3531 44.725C57.1031 45.1083 55.8531 45.3 54.6031 45.3ZM57.9781 42.55V35.975H61.6781V43.075L57.9781 42.55Z" fill="#0ACF83"/>
<path d="M65.4402 45V27.5H68.7902L76.2402 39.85H74.4652L81.7902 27.5H85.1152L85.1652 45H81.3652L81.3402 33.325H82.0402L76.1902 43.15H74.3652L68.3902 33.325H69.2402V45H65.4402Z" fill="#FF7262"/>
<path d="M87.0172 45L94.8172 27.5H98.8172L106.642 45H102.392L95.9922 29.55H97.5922L91.1672 45H87.0172ZM90.9172 41.25L91.9922 38.175H100.992L102.092 41.25H90.9172Z" fill="#1ABCFE"/>
</g>
<defs>
<filter id="filter0_i_101_3" x="0.312012" y="0.199951" width="106.33" height="49.1001" filterUnits="userSpaceOnUse" color-interpolation-filters="sRGB">
<feFlood flood-opacity="0" result="BackgroundImageFix"/>
<feBlend mode="normal" in="SourceGraphic" in2="BackgroundImageFix" result="shape"/>
<feColorMatrix in="SourceAlpha" type="matrix" values="0 0 0 0 0 0 0 0 0 0 0 0 0 0 0 0 0 0 127 0" result="hardAlpha"/>
<feOffset dy="4"/>
<feGaussianBlur stdDeviation="2"/>
<feComposite in2="hardAlpha" operator="arithmetic" k2="-1" k3="1"/>
<feColorMatrix type="matrix" values="0 0 0 0 0 0 0 0 0 0 0 0 0 0 0 0 0 0 0.25 0"/>
<feBlend mode="normal" in2="shape" result="effect1_innerShadow_101_3"/>
</filter>
</defs>
</svg>
