<svg width="85" height="100" viewBox="0 0 85 100" fill="none" xmlns="http://www.w3.org/2000/svg">
<g clip-path="url(#clip0_50_264)">
<path d="M21.25 100C32.98 100 42.5 92.5334 42.5 83.3334V66.6667H21.25C9.52 66.6667 0 74.1334 0 83.3334C0 92.5334 9.52 100 21.25 100Z" fill="#0ACF83"/>
<path d="M0 49.9999C0 40.7999 9.52 33.3333 21.25 33.3333H42.5V66.6666H21.25C9.52 66.6666 0 59.1999 0 49.9999Z" fill="#A259FF"/>
<path d="M0 16.6667C0 7.46667 9.52 0 21.25 0H42.5V33.3333H21.25C9.52 33.3333 0 25.8667 0 16.6667Z" fill="#F24E1E"/>
<path d="M42.5 0H63.75C75.48 0 85 7.46667 85 16.6667C85 25.8667 75.48 33.3333 63.75 33.3333H42.5V0Z" fill="#FF7262"/>
<path d="M85 49.9999C85 59.1999 75.48 66.6666 63.75 66.6666C52.02 66.6666 42.5 59.1999 42.5 49.9999C42.5 40.7999 52.02 33.3333 63.75 33.3333C75.48 33.3333 85 40.7999 85 49.9999Z" fill="#1ABCFE"/>
</g>
<defs>
<clipPath id="clip0_50_264">
<rect width="85" height="100" fill="white"/>
</clipPath>
</defs>
</svg>
