<svg width="84" height="100" viewBox="0 0 84 100" fill="none" xmlns="http://www.w3.org/2000/svg">
<path d="M15.2251 76.875L15.6713 76.1344L36.7238 28.5906L36.7685 28.0875L27.4891 7.3375C27.3192 6.95805 27.0534 6.6518 26.7293 6.46207C26.4052 6.27235 26.0392 6.20875 25.683 6.28028C25.3269 6.3518 24.9986 6.55484 24.7447 6.86065C24.4908 7.16647 24.3241 7.55958 24.2682 7.98437L15.2251 76.875Z" fill="#FFC24A"/>
<path d="M15.4875 76.3126L15.8235 75.5313L36.6582 28.4813L27.4024 7.65008C27.2498 7.28781 27.0027 6.99417 26.6981 6.81315C26.3935 6.63212 26.0478 6.57347 25.7128 6.64597C25.3779 6.71847 25.0717 6.91822 24.8401 7.2153C24.6085 7.51238 24.464 7.89078 24.4283 8.29383L15.4875 76.3126Z" fill="#FFA712"/>
<path d="M43.5331 43.7812L50.4421 35.3437L43.5304 19.653C43.3783 19.3154 43.1521 19.0331 42.8759 18.8363C42.5997 18.6396 42.2839 18.5356 41.962 18.5356C41.6401 18.5356 41.3243 18.6396 41.0481 18.8363C40.7719 19.0331 40.5457 19.3154 40.3936 19.653L36.7002 28.0343V28.7499L43.5331 43.7812Z" fill="#F4BD62"/>
<path d="M43.4096 43.4376L50.1269 35.2501L43.4096 20.0001C43.2996 19.67 43.1118 19.3848 42.8688 19.1789C42.6258 18.973 42.3379 18.8552 42.0399 18.8397C41.7419 18.8241 41.4465 18.9116 41.1893 19.0914C40.9321 19.2712 40.7241 19.5358 40.5903 19.8532L36.8786 28.3813L36.7683 28.8157L43.4096 43.4376Z" fill="#FFA50E"/>
<path d="M15.2302 76.8782L15.4323 76.6344L16.1647 76.2813L43.0972 44.3375L43.4385 43.2313L36.7211 27.9875L15.2302 76.8782Z" fill="#F6820C"/>
<path d="M44.3941 92.9875L68.7751 76.8031L61.8083 25.7688C61.7584 25.409 61.6262 25.0726 61.4261 24.7964C61.2261 24.5203 60.966 24.3151 60.6745 24.2033C60.3829 24.0916 60.0711 24.0777 59.7733 24.1631C59.4756 24.2485 59.2033 24.43 58.9865 24.6875L15.2251 76.875L39.4617 92.9844C40.2152 93.4849 41.0637 93.7477 41.9266 93.7477C42.7895 93.7477 43.638 93.4849 44.3915 92.9844" fill="#FDE068"/>
<path d="M68.5519 76.6688L61.6429 26.0188C61.6307 25.6747 61.5331 25.3426 61.3623 25.0646C61.1915 24.7866 60.9552 24.5752 60.6835 24.4571C60.4117 24.339 60.1166 24.3195 59.8356 24.4012C59.5545 24.4828 59.3001 24.6618 59.1046 24.9157L15.4875 76.7782L39.4564 92.7157C40.2039 93.2121 41.0457 93.4727 41.9016 93.4727C42.7576 93.4727 43.5993 93.2121 44.3468 92.7157L68.5519 76.6688Z" fill="#FCCA3F"/>
<path d="M44.3941 92.5001C43.6406 93.0006 42.7921 93.2634 41.9292 93.2634C41.0664 93.2634 40.2178 93.0006 39.4643 92.5001L15.4246 76.6313L15.2251 76.8751L39.4617 92.9845C40.2152 93.485 41.0637 93.7478 41.9266 93.7478C42.7895 93.7478 43.638 93.485 44.3915 92.9845L68.7751 76.8032L68.7147 76.3657L44.3941 92.5001Z" fill="#EEAB37"/>
</svg>
