<svg width="119" height="36" viewBox="0 0 119 36" fill="none" xmlns="http://www.w3.org/2000/svg">
<g filter="url(#filter0_i_101_3)">
<path d="M7.65 15.75H24.45V22.25H7.65V15.75ZM8.25 35H0.15V-2.38419e-06H26.6V6.5H8.25V35ZM29.5936 35V21H32.8336V35H29.5936ZM36.1561 35V21H42.2161C43.4694 21 44.5494 21.2067 45.4561 21.62C46.3628 22.02 47.0628 22.6 47.5561 23.36C48.0494 24.12 48.2961 25.0267 48.2961 26.08C48.2961 27.12 48.0494 28.02 47.5561 28.78C47.0628 29.5267 46.3628 30.1 45.4561 30.5C44.5494 30.9 43.4694 31.1 42.2161 31.1H37.9561L39.3961 29.68V35H36.1561ZM45.0561 35L41.5561 29.92H45.0161L48.5561 35H45.0561ZM39.3961 30.04L37.9561 28.52H42.0361C43.0361 28.52 43.7828 28.3067 44.2761 27.88C44.7694 27.44 45.0161 26.84 45.0161 26.08C45.0161 25.3067 44.7694 24.7067 44.2761 24.28C43.7828 23.8533 43.0361 23.64 42.0361 23.64H37.9561L39.3961 22.1V30.04ZM53.8431 26.64H60.5831V29.16H53.8431V26.64ZM54.0831 32.4H61.7031V35H50.8631V21H61.4431V23.6H54.0831V32.4ZM64.2811 35V21H71.1211C72.8811 21 74.2011 21.3333 75.0811 22C75.9744 22.6667 76.4211 23.5467 76.4211 24.64C76.4211 25.3733 76.2411 26.0133 75.8811 26.56C75.5211 27.0933 75.0278 27.5067 74.4011 27.8C73.7744 28.0933 73.0544 28.24 72.2411 28.24L72.6211 27.42C73.5011 27.42 74.2811 27.5667 74.9611 27.86C75.6411 28.14 76.1678 28.56 76.5411 29.12C76.9278 29.68 77.1211 30.3667 77.1211 31.18C77.1211 32.38 76.6478 33.32 75.7011 34C74.7544 34.6667 73.3611 35 71.5211 35H64.2811ZM67.5011 32.56H71.2811C72.1211 32.56 72.7544 32.4267 73.1811 32.16C73.6211 31.88 73.8411 31.44 73.8411 30.84C73.8411 30.2533 73.6211 29.82 73.1811 29.54C72.7544 29.2467 72.1211 29.1 71.2811 29.1H67.2611V26.74H70.7211C71.5078 26.74 72.1078 26.6067 72.5211 26.34C72.9478 26.06 73.1611 25.64 73.1611 25.08C73.1611 24.5333 72.9478 24.1267 72.5211 23.86C72.1078 23.58 71.5078 23.44 70.7211 23.44H67.5011V32.56ZM77.7341 35L83.9741 21H87.1741L93.4341 35H90.0341L84.9141 22.64H86.1941L81.0541 35H77.7341ZM80.8541 32L81.7141 29.54H88.9141L89.7941 32H80.8541ZM99.4866 35.24C98.3666 35.24 97.2932 35.0933 96.2666 34.8C95.2399 34.4933 94.4132 34.1 93.7866 33.62L94.8866 31.18C95.4866 31.6067 96.1932 31.96 97.0066 32.24C97.8332 32.5067 98.6666 32.64 99.5066 32.64C100.147 32.64 100.66 32.58 101.047 32.46C101.447 32.3267 101.74 32.1467 101.927 31.92C102.113 31.6933 102.207 31.4333 102.207 31.14C102.207 30.7667 102.06 30.4733 101.767 30.26C101.473 30.0333 101.087 29.8533 100.607 29.72C100.127 29.5733 99.5932 29.44 99.0066 29.32C98.4332 29.1867 97.8532 29.0267 97.2666 28.84C96.6932 28.6533 96.1666 28.4133 95.6866 28.12C95.2066 27.8267 94.8132 27.44 94.5066 26.96C94.2132 26.48 94.0666 25.8667 94.0666 25.12C94.0666 24.32 94.2799 23.5933 94.7066 22.94C95.1466 22.2733 95.7999 21.7467 96.6666 21.36C97.5466 20.96 98.6466 20.76 99.9666 20.76C100.847 20.76 101.713 20.8667 102.567 21.08C103.42 21.28 104.173 21.5867 104.827 22L103.827 24.46C103.173 24.0867 102.52 23.8133 101.867 23.64C101.213 23.4533 100.573 23.36 99.9466 23.36C99.3199 23.36 98.8066 23.4333 98.4066 23.58C98.0066 23.7267 97.7199 23.92 97.5466 24.16C97.3732 24.3867 97.2866 24.6533 97.2866 24.96C97.2866 25.32 97.4332 25.6133 97.7266 25.84C98.0199 26.0533 98.4066 26.2267 98.8866 26.36C99.3666 26.4933 99.8932 26.6267 100.467 26.76C101.053 26.8933 101.633 27.0467 102.207 27.22C102.793 27.3933 103.327 27.6267 103.807 27.92C104.287 28.2133 104.673 28.6 104.967 29.08C105.273 29.56 105.427 30.1667 105.427 30.9C105.427 31.6867 105.207 32.4067 104.767 33.06C104.327 33.7133 103.667 34.24 102.787 34.64C101.92 35.04 100.82 35.24 99.4866 35.24ZM110.62 26.64H117.36V29.16H110.62V26.64ZM110.86 32.4H118.48V35H107.64V21H118.22V23.6H110.86V32.4Z" fill="#FCCA3F"/>
</g>
<defs>
<filter id="filter0_i_101_3" x="0.149902" y="0" width="118.331" height="39.24" filterUnits="userSpaceOnUse" color-interpolation-filters="sRGB">
<feFlood flood-opacity="0" result="BackgroundImageFix"/>
<feBlend mode="normal" in="SourceGraphic" in2="BackgroundImageFix" result="shape"/>
<feColorMatrix in="SourceAlpha" type="matrix" values="0 0 0 0 0 0 0 0 0 0 0 0 0 0 0 0 0 0 127 0" result="hardAlpha"/>
<feOffset dy="4"/>
<feGaussianBlur stdDeviation="2"/>
<feComposite in2="hardAlpha" operator="arithmetic" k2="-1" k3="1"/>
<feColorMatrix type="matrix" values="0 0 0 0 0 0 0 0 0 0 0 0 0 0 0 0 0 0 0.25 0"/>
<feBlend mode="normal" in2="shape" result="effect1_innerShadow_101_3"/>
</filter>
</defs>
</svg>
