<svg width="100" height="100" viewBox="0 0 100 100" fill="none" xmlns="http://www.w3.org/2000/svg">
<path d="M18.4437 85.0031L11.4219 6.25H88.5781L81.5469 84.9906L49.9531 93.75L18.4437 85.0031Z" fill="#E44F26"/>
<path d="M50 87.0563L75.5312 79.9782L81.5375 12.6907H50V87.0563Z" fill="#F1662A"/>
<path d="M50 41.8969H37.2188L36.3375 32.0063H50V22.3469H25.7812L26.0125 24.9407L28.3844 51.5563H50V41.8969ZM50 66.9813L49.9562 66.9938L39.2 64.0907L38.5125 56.3876H28.8156L30.1688 71.55L49.9562 77.0438L50 77.0313V66.9813Z" fill="#EBEBEB"/>
<path d="M49.9656 41.8969V51.5563H61.8593L60.7406 64.0844L49.9656 66.9907V77.0407L69.7687 71.55L69.9124 69.9188L72.1812 44.4907L72.4187 41.8969H49.9656ZM49.9656 22.3469V32.0063H73.2968L73.4906 29.8375L73.9312 24.9407L74.1625 22.3469H49.9656Z" fill="white"/>
</svg>
