<svg width="85" height="100" viewBox="0 0 85 100" fill="none" xmlns="http://www.w3.org/2000/svg">
<g clip-path="url(#clip0_50_276)">
<path d="M27.4104 77.3044C27.4104 77.3044 23.0282 79.5226 30.5292 80.2732C39.6165 81.1755 44.2606 81.0463 54.275 79.3963C54.275 79.3963 56.908 80.8333 60.5846 82.0781C38.1357 90.4529 9.77754 81.5928 27.4104 77.3044M24.6672 66.3755C24.6672 66.3755 19.7521 69.5425 27.2587 70.2183C36.9659 71.0899 44.6319 71.1613 57.8972 68.9379C57.8972 68.9379 59.732 70.557 62.617 71.4425C35.4744 78.3512 5.24266 71.9873 24.6672 66.3755" fill="#5382A1"/>
<path d="M47.7933 47.8367C53.325 53.38 46.34 58.3685 46.34 58.3685C46.34 58.3685 60.3853 52.0572 53.9349 44.1537C47.9105 36.7838 43.2903 33.1214 68.3012 20.4954C68.3012 20.4954 29.0425 29.03 47.7933 47.8364" fill="#E76F00"/>
<path d="M77.4842 85.3878C77.4842 85.3878 80.7271 87.7136 73.9125 89.513C60.9547 92.93 19.98 93.9618 8.59732 89.6491C4.5057 88.1 12.1789 85.9497 14.5925 85.4983C17.1096 85.0231 18.5483 85.1118 18.5483 85.1118C13.9978 82.3214 -10.864 90.5907 5.91982 92.9587C51.6913 99.4199 89.3566 90.0494 77.4842 85.3878ZM29.5176 55.052C29.5176 55.052 8.67568 59.3613 22.1372 60.9257C27.8209 61.5881 39.1515 61.4384 49.7058 60.6685C58.3313 60.0355 66.9923 58.6887 66.9923 58.6887C66.9923 58.6887 63.9509 59.8225 61.7505 61.1303C40.5855 65.9757 -0.301446 63.7217 11.4694 58.7653C21.424 54.5769 29.518 55.052 29.518 55.052M66.9063 73.2433C88.422 63.5115 78.474 54.1595 71.5305 55.4196C69.8285 55.7277 69.0698 55.9948 69.0698 55.9948C69.0698 55.9948 69.7017 55.1335 70.9083 54.7607C84.6444 50.5569 95.2087 67.1587 66.474 73.7338C66.474 73.7341 66.807 73.4751 66.9063 73.2433Z" fill="#5382A1"/>
<path d="M53.9347 0.107223C53.9347 0.107223 65.8503 10.4829 42.6334 26.437C24.016 39.2353 38.388 46.5324 42.6257 54.8697C31.7583 46.335 23.783 38.8217 29.1336 31.8292C36.9865 21.5642 58.7422 16.5876 53.9347 0.106934" fill="#E76F00"/>
<path d="M31.6319 99.6142C52.284 100.765 83.9973 98.9758 84.7483 90.4697C84.7483 90.4697 83.3046 93.6946 67.6806 96.2553C50.0537 99.1426 28.3136 98.8056 15.4192 96.955C15.4195 96.955 18.0588 98.8567 31.6323 99.6142" fill="#5382A1"/>
</g>
<defs>
<clipPath id="clip0_50_276">
<rect width="85" height="100" fill="white"/>
</clipPath>
</defs>
</svg>
