<svg width="52" height="46" viewBox="0 0 52 46" fill="none" xmlns="http://www.w3.org/2000/svg">
<g filter="url(#filter0_i_101_3)">
<path d="M15.568 45.768C12.5387 45.768 9.744 45.2133 7.184 44.104C4.66667 42.952 2.59733 41.3307 0.976 39.24L6.736 32.328C7.97333 33.9493 9.27467 35.1867 10.64 36.04C12.0053 36.8507 13.4773 37.256 15.056 37.256C19.28 37.256 21.392 34.7813 21.392 29.832V8.52H5.648V0.199997H31.696V29.256C31.696 34.8027 30.3307 38.9413 27.6 41.672C24.8693 44.4027 20.8587 45.768 15.568 45.768ZM44.45 45.3C43.05 45.3 41.7083 45.1167 40.425 44.75C39.1417 44.3667 38.1083 43.875 37.325 43.275L38.7 40.225C39.45 40.7583 40.3333 41.2 41.35 41.55C42.3833 41.8833 43.425 42.05 44.475 42.05C45.275 42.05 45.9167 41.975 46.4 41.825C46.9 41.6583 47.2667 41.4333 47.5 41.15C47.7333 40.8667 47.85 40.5417 47.85 40.175C47.85 39.7083 47.6667 39.3417 47.3 39.075C46.9333 38.7917 46.45 38.5667 45.85 38.4C45.25 38.2167 44.5833 38.05 43.85 37.9C43.1333 37.7333 42.4083 37.5333 41.675 37.3C40.9583 37.0667 40.3 36.7667 39.7 36.4C39.1 36.0333 38.6083 35.55 38.225 34.95C37.8583 34.35 37.675 33.5833 37.675 32.65C37.675 31.65 37.9417 30.7417 38.475 29.925C39.025 29.0917 39.8417 28.4333 40.925 27.95C42.025 27.45 43.4 27.2 45.05 27.2C46.15 27.2 47.2333 27.3333 48.3 27.6C49.3667 27.85 50.3083 28.2333 51.125 28.75L49.875 31.825C49.0583 31.3583 48.2417 31.0167 47.425 30.8C46.6083 30.5667 45.8083 30.45 45.025 30.45C44.2417 30.45 43.6 30.5417 43.1 30.725C42.6 30.9083 42.2417 31.15 42.025 31.45C41.8083 31.7333 41.7 32.0667 41.7 32.45C41.7 32.9 41.8833 33.2667 42.25 33.55C42.6167 33.8167 43.1 34.0333 43.7 34.2C44.3 34.3667 44.9583 34.5333 45.675 34.7C46.4083 34.8667 47.1333 35.0583 47.85 35.275C48.5833 35.4917 49.25 35.7833 49.85 36.15C50.45 36.5167 50.9333 37 51.3 37.6C51.6833 38.2 51.875 38.9583 51.875 39.875C51.875 40.8583 51.6 41.7583 51.05 42.575C50.5 43.3917 49.675 44.05 48.575 44.55C47.4917 45.05 46.1167 45.3 44.45 45.3Z" fill="#F5DE19"/>
</g>
<defs>
<filter id="filter0_i_101_3" x="0.976074" y="0.199951" width="50.8989" height="49.5681" filterUnits="userSpaceOnUse" color-interpolation-filters="sRGB">
<feFlood flood-opacity="0" result="BackgroundImageFix"/>
<feBlend mode="normal" in="SourceGraphic" in2="BackgroundImageFix" result="shape"/>
<feColorMatrix in="SourceAlpha" type="matrix" values="0 0 0 0 0 0 0 0 0 0 0 0 0 0 0 0 0 0 127 0" result="hardAlpha"/>
<feOffset dy="4"/>
<feGaussianBlur stdDeviation="2"/>
<feComposite in2="hardAlpha" operator="arithmetic" k2="-1" k3="1"/>
<feColorMatrix type="matrix" values="0 0 0 0 0 0 0 0 0 0 0 0 0 0 0 0 0 0 0.25 0"/>
<feBlend mode="normal" in2="shape" result="effect1_innerShadow_101_3"/>
</filter>
</defs>
</svg>
