<svg width="100" height="100" viewBox="0 0 100 100" fill="none" xmlns="http://www.w3.org/2000/svg">
<path d="M6.25 6.25H93.75V93.75H6.25V6.25Z" fill="#F5DE19"/>
<path d="M65.0282 74.6095C65.7738 76.1239 66.932 77.3967 68.3696 78.2814C69.8071 79.166 71.4654 79.6264 73.1532 79.6095C76.5595 79.6095 78.7376 77.9064 78.7376 75.547C78.7376 72.7345 76.5001 71.7282 72.7501 70.0876L70.6938 69.2064C64.7563 66.6782 60.8188 63.5126 60.8188 56.8189C60.8188 50.6532 65.5064 45.9564 72.8595 45.9564C75.2398 45.7845 77.6181 46.3172 79.6976 47.4881C81.7771 48.6591 83.4659 50.4163 84.5532 52.5407L78.1251 56.6501C77.7064 55.5968 76.9774 54.6955 76.0348 54.066C75.0921 53.4365 73.9804 53.1083 72.847 53.1251C72.3525 53.0756 71.8531 53.1297 71.3806 53.2838C70.9082 53.438 70.473 53.6889 70.1029 54.0205C69.7327 54.3521 69.4357 54.7572 69.2308 55.21C69.0259 55.6627 68.9175 56.1532 68.9126 56.6501C68.9126 59.1158 70.4407 60.1158 73.9688 61.6501L76.0251 62.5314C83.0126 65.5282 86.9626 68.5814 86.9626 75.447C86.9626 82.8501 81.147 86.9064 73.3376 86.9064C70.2948 87.1002 67.2609 86.4094 64.602 84.9172C61.9432 83.425 59.7729 81.1953 58.3532 78.497L65.0282 74.6095ZM35.9813 75.322C37.272 77.6126 38.447 79.5501 41.272 79.5501C43.972 79.5501 45.6782 78.4939 45.6782 74.3845V46.4251H53.9001V74.4939C53.9001 83.0064 48.9001 86.8814 41.622 86.8814C39.0493 87.022 36.4943 86.3809 34.2929 85.0422C32.0914 83.7036 30.3465 81.7302 29.2876 79.3814L35.9813 75.322Z" fill="black"/>
</svg>
