<svg width="112" height="46" viewBox="0 0 112 46" fill="none" xmlns="http://www.w3.org/2000/svg">
<g filter="url(#filter0_i_101_3)">
<path d="M0.312 45V0.199997H19.704C23.7147 0.199997 27.1707 0.861331 30.072 2.184C32.9733 3.464 35.2133 5.32 36.792 7.752C38.3707 10.184 39.16 13.0853 39.16 16.456C39.16 19.784 38.3707 22.664 36.792 25.096C35.2133 27.4853 32.9733 29.32 30.072 30.6C27.1707 31.88 23.7147 32.52 19.704 32.52H6.072L10.68 27.976V45H0.312ZM28.792 45L17.592 28.744H28.664L39.992 45H28.792ZM10.68 29.128L6.072 24.264H19.128C22.328 24.264 24.7173 23.5813 26.296 22.216C27.8747 20.808 28.664 18.888 28.664 16.456C28.664 13.9813 27.8747 12.0613 26.296 10.696C24.7173 9.33067 22.328 8.648 19.128 8.648H6.072L10.68 3.72V29.128ZM47.8625 34.55H56.2875V37.7H47.8625V34.55ZM48.1625 41.75H57.6875V45H44.1375V27.5H57.3625V30.75H48.1625V41.75ZM58.61 45L66.41 27.5H70.41L78.235 45H73.985L67.585 29.55H69.185L62.76 45H58.61ZM62.51 41.25L63.585 38.175H72.585L73.685 41.25H62.51ZM88.1814 45.3C86.8314 45.3 85.5731 45.0833 84.4064 44.65C83.2564 44.2 82.2564 43.5667 81.4064 42.75C80.5564 41.9333 79.8898 40.975 79.4064 39.875C78.9398 38.775 78.7064 37.5667 78.7064 36.25C78.7064 34.9333 78.9398 33.725 79.4064 32.625C79.8898 31.525 80.5564 30.5667 81.4064 29.75C82.2731 28.9333 83.2814 28.3083 84.4314 27.875C85.5814 27.425 86.8398 27.2 88.2064 27.2C89.7231 27.2 91.0898 27.4667 92.3064 28C93.5398 28.5167 94.5731 29.2833 95.4064 30.3L92.8064 32.7C92.2064 32.0167 91.5398 31.5083 90.8064 31.175C90.0731 30.825 89.2731 30.65 88.4064 30.65C87.5898 30.65 86.8398 30.7833 86.1564 31.05C85.4731 31.3167 84.8814 31.7 84.3814 32.2C83.8814 32.7 83.4898 33.2917 83.2064 33.975C82.9398 34.6583 82.8064 35.4167 82.8064 36.25C82.8064 37.0833 82.9398 37.8417 83.2064 38.525C83.4898 39.2083 83.8814 39.8 84.3814 40.3C84.8814 40.8 85.4731 41.1833 86.1564 41.45C86.8398 41.7167 87.5898 41.85 88.4064 41.85C89.2731 41.85 90.0731 41.6833 90.8064 41.35C91.5398 41 92.2064 40.475 92.8064 39.775L95.4064 42.175C94.5731 43.1917 93.5398 43.9667 92.3064 44.5C91.0898 45.0333 89.7148 45.3 88.1814 45.3ZM101.596 45V30.8H95.9955V27.5H111.246V30.8H105.646V45H101.596Z" fill="#007ACC"/>
</g>
<defs>
<filter id="filter0_i_101_3" x="0.312012" y="0.199951" width="110.934" height="49.1001" filterUnits="userSpaceOnUse" color-interpolation-filters="sRGB">
<feFlood flood-opacity="0" result="BackgroundImageFix"/>
<feBlend mode="normal" in="SourceGraphic" in2="BackgroundImageFix" result="shape"/>
<feColorMatrix in="SourceAlpha" type="matrix" values="0 0 0 0 0 0 0 0 0 0 0 0 0 0 0 0 0 0 127 0" result="hardAlpha"/>
<feOffset dy="4"/>
<feGaussianBlur stdDeviation="2"/>
<feComposite in2="hardAlpha" operator="arithmetic" k2="-1" k3="1"/>
<feColorMatrix type="matrix" values="0 0 0 0 0 0 0 0 0 0 0 0 0 0 0 0 0 0 0.25 0"/>
<feBlend mode="normal" in2="shape" result="effect1_innerShadow_101_3"/>
</filter>
</defs>
</svg>
