<svg width="85" height="100" viewBox="0 0 85 100" fill="none" xmlns="http://www.w3.org/2000/svg">
<path d="M42.5 57.7312C46.1675 57.7312 49.1406 54.2334 49.1406 49.9187C49.1406 45.604 46.1675 42.1062 42.5 42.1062C38.8325 42.1062 35.8594 45.604 35.8594 49.9187C35.8594 54.2334 38.8325 57.7312 42.5 57.7312Z" fill="#007ACC"/>
<path d="M42.5 67.8312C34.5183 68.0584 26.5566 66.7926 18.9125 64.0812C15.3813 62.7643 12.0879 60.6898 9.19859 57.9625C8.09606 57.0308 7.17791 55.8295 6.50713 54.4411C5.83635 53.0526 5.42882 51.5099 5.3125 49.9187C5.3125 44.7531 10.1362 39.6906 18.2166 36.3781C26.0651 33.4429 34.2654 32.0204 42.5 32.1656C50.6247 32.0321 58.7152 33.4289 66.4647 36.3031C69.8654 37.5786 73.0472 39.5529 75.8625 42.1344C76.9462 43.0226 77.8506 44.1804 78.5116 45.5256C79.1726 46.8708 79.574 48.3706 79.6875 49.9187C79.6875 55.2875 74.2953 60.7281 65.6094 64.1094C58.1132 66.7324 50.3195 67.9876 42.5 67.8312ZM42.5 35.9031C34.6219 35.7792 26.7772 37.1316 19.2605 39.9094C11.823 42.9625 8.48938 47.1375 8.48938 49.9094C8.48938 52.8094 12.0727 57.3687 19.9405 60.5344C27.2533 63.1152 34.8676 64.3165 42.5 64.0937C49.9811 64.2511 57.4385 63.0602 64.6133 60.5625C72.7812 57.3781 76.5 52.8125 76.5 49.9187C76.366 48.9257 76.0584 47.9761 75.5966 47.13C75.1348 46.284 74.5289 45.5597 73.8172 45.0031C71.2984 42.7129 68.4561 40.9632 65.4208 39.8344C58.0073 37.0961 50.2695 35.769 42.5 35.9031Z" fill="#007ACC"/>
<path d="M27.4124 88.8845C26.1733 88.9179 24.9488 88.5642 23.8637 87.8595C20.0599 85.2782 18.7424 77.8345 20.3388 67.9439C22.099 58.4785 25.1488 49.4104 29.3701 41.0907C33.3298 32.7442 38.3992 25.1967 44.3859 18.7345C47.024 15.9054 50.0672 13.6487 53.3746 12.0688C54.5709 11.4093 55.8759 11.0674 57.197 11.0674C58.5181 11.0674 59.823 11.4093 61.0193 12.0688C64.9745 14.7501 66.284 22.9626 64.4379 33.5032C62.6234 42.455 59.6528 51.0265 55.6298 58.9189C51.8094 67.1668 46.8997 74.6486 41.0842 81.0845C38.3503 84.0244 35.1775 86.3437 31.7262 87.9251C30.3445 88.5284 28.886 88.8528 27.4124 88.8845ZM32.122 42.947C28.0954 50.9136 25.1723 59.5836 23.4626 68.6314C21.9937 77.7407 23.4042 83.2189 25.4548 84.6126C27.5798 86.0595 32.7382 84.6876 39.0017 78.2501C44.5533 72.0843 49.2395 64.9226 52.8859 57.0314C56.7399 49.4861 59.5894 41.2912 61.3354 32.7314C63.0726 22.8095 61.5718 16.7345 59.4415 15.2907C58.6431 14.9308 57.7898 14.7697 56.9358 14.8176C56.0817 14.8654 55.2454 15.1213 54.4796 15.5688C51.5357 16.9981 48.8291 19.0271 46.4843 21.5626C40.7645 27.7526 35.9222 34.978 32.1406 42.9657L32.122 42.947Z" fill="#007ACC"/>
<path d="M57.5795 88.9249C53.9803 88.9249 49.4089 86.3624 44.6489 81.5468C38.5573 75.0258 33.4023 67.3886 29.3834 58.9312C25.215 50.726 22.1894 41.7891 20.4212 32.4593C19.6544 28.3546 19.5123 24.1224 20.0015 19.9593C20.1146 18.415 20.5144 16.9186 21.1725 15.5758C21.8306 14.2329 22.7312 13.0763 23.8106 12.1874C27.7604 9.49681 34.4622 12.2624 41.302 19.4062C46.9879 25.7255 51.8165 33.0334 55.6192 41.0749C59.785 49.0885 62.8423 57.8297 64.677 66.9718C65.4768 71.2271 65.6002 75.6199 65.0409 79.9281C64.9078 81.5168 64.4843 83.053 63.7993 84.4311C63.1143 85.8093 62.1841 86.9968 61.0725 87.9124C60.0051 88.6084 58.7995 88.9579 57.5795 88.9249ZM32.1326 57.0499C35.988 65.1325 40.9123 72.4417 46.7207 78.7031C52.6947 84.7499 57.4334 86.0499 59.4707 84.6405C61.5957 83.1874 63.1629 77.2562 61.5479 67.6593C59.7785 58.931 56.8461 50.5871 52.8593 42.9374C49.2305 35.2409 44.6216 28.2432 39.1929 22.1874C32.7542 15.4624 27.532 13.9593 25.4043 15.4093C24.7412 16.0433 24.197 16.8322 23.8061 17.7261C23.4152 18.6201 23.1861 19.5997 23.1332 20.6031C22.7109 24.3158 22.8485 28.0871 23.5397 31.7437C25.2405 40.666 28.1423 49.2112 32.1353 57.0562L32.1326 57.0499Z" fill="#007ACC"/>
</svg>
