<svg width="91" height="47" viewBox="0 0 91 47" fill="none" xmlns="http://www.w3.org/2000/svg">
<g filter="url(#filter0_i_101_3)">
<path d="M19.032 46.768C15.448 46.768 12.0133 46.2987 8.728 45.36C5.44267 44.3787 2.79733 43.12 0.792 41.584L4.312 33.776C6.232 35.1413 8.49333 36.272 11.096 37.168C13.7413 38.0213 16.408 38.448 19.096 38.448C21.144 38.448 22.7867 38.256 24.024 37.872C25.304 37.4453 26.2427 36.8693 26.84 36.144C27.4373 35.4187 27.736 34.5867 27.736 33.648C27.736 32.4533 27.2667 31.5147 26.328 30.832C25.3893 30.1067 24.152 29.5307 22.616 29.104C21.08 28.6347 19.3733 28.208 17.496 27.824C15.6613 27.3973 13.8053 26.8853 11.928 26.288C10.0933 25.6907 8.408 24.9227 6.872 23.984C5.336 23.0453 4.07733 21.808 3.096 20.272C2.15733 18.736 1.688 16.7733 1.688 14.384C1.688 11.824 2.37067 9.49866 3.736 7.408C5.144 5.27466 7.23467 3.58933 10.008 2.352C12.824 1.072 16.344 0.431999 20.568 0.431999C23.384 0.431999 26.1573 0.773332 28.888 1.456C31.6187 2.096 34.0293 3.07733 36.12 4.4L32.92 12.272C30.8293 11.0773 28.7387 10.2027 26.648 9.648C24.5573 9.05067 22.5093 8.752 20.504 8.752C18.4987 8.752 16.856 8.98667 15.576 9.456C14.296 9.92533 13.3787 10.544 12.824 11.312C12.2693 12.0373 11.992 12.8907 11.992 13.872C11.992 15.024 12.4613 15.9627 13.4 16.688C14.3387 17.3707 15.576 17.9253 17.112 18.352C18.648 18.7787 20.3333 19.2053 22.168 19.632C24.0453 20.0587 25.9013 20.5493 27.736 21.104C29.6133 21.6587 31.32 22.4053 32.856 23.344C34.392 24.2827 35.6293 25.52 36.568 27.056C37.5493 28.592 38.04 30.5333 38.04 32.88C38.04 35.3973 37.336 37.7013 35.928 39.792C34.52 41.8827 32.408 43.568 29.592 44.848C26.8187 46.128 23.2987 46.768 19.032 46.768ZM39.5875 46L47.3875 28.5H51.3875L59.2125 46H54.9625L48.5625 30.55H50.1625L43.7375 46H39.5875ZM43.4875 42.25L44.5625 39.175H53.5625L54.6625 42.25H43.4875ZM66.7781 46.3C65.3781 46.3 64.0365 46.1167 62.7531 45.75C61.4698 45.3667 60.4365 44.875 59.6531 44.275L61.0281 41.225C61.7781 41.7583 62.6615 42.2 63.6781 42.55C64.7115 42.8833 65.7531 43.05 66.8031 43.05C67.6031 43.05 68.2448 42.975 68.7281 42.825C69.2281 42.6583 69.5948 42.4333 69.8281 42.15C70.0615 41.8667 70.1781 41.5417 70.1781 41.175C70.1781 40.7083 69.9948 40.3417 69.6281 40.075C69.2615 39.7917 68.7781 39.5667 68.1781 39.4C67.5781 39.2167 66.9115 39.05 66.1781 38.9C65.4615 38.7333 64.7365 38.5333 64.0031 38.3C63.2865 38.0667 62.6281 37.7667 62.0281 37.4C61.4281 37.0333 60.9365 36.55 60.5531 35.95C60.1865 35.35 60.0031 34.5833 60.0031 33.65C60.0031 32.65 60.2698 31.7417 60.8031 30.925C61.3531 30.0917 62.1698 29.4333 63.2531 28.95C64.3531 28.45 65.7281 28.2 67.3781 28.2C68.4781 28.2 69.5615 28.3333 70.6281 28.6C71.6948 28.85 72.6365 29.2333 73.4531 29.75L72.2031 32.825C71.3865 32.3583 70.5698 32.0167 69.7531 31.8C68.9365 31.5667 68.1365 31.45 67.3531 31.45C66.5698 31.45 65.9281 31.5417 65.4281 31.725C64.9281 31.9083 64.5698 32.15 64.3531 32.45C64.1365 32.7333 64.0281 33.0667 64.0281 33.45C64.0281 33.9 64.2115 34.2667 64.5781 34.55C64.9448 34.8167 65.4281 35.0333 66.0281 35.2C66.6281 35.3667 67.2865 35.5333 68.0031 35.7C68.7365 35.8667 69.4615 36.0583 70.1781 36.275C70.9115 36.4917 71.5781 36.7833 72.1781 37.15C72.7781 37.5167 73.2615 38 73.6281 38.6C74.0115 39.2 74.2031 39.9583 74.2031 40.875C74.2031 41.8583 73.9281 42.7583 73.3781 43.575C72.8281 44.3917 72.0031 45.05 70.9031 45.55C69.8198 46.05 68.4448 46.3 66.7781 46.3ZM82.7205 46.3C81.3205 46.3 79.9788 46.1167 78.6955 45.75C77.4122 45.3667 76.3788 44.875 75.5955 44.275L76.9705 41.225C77.7205 41.7583 78.6038 42.2 79.6205 42.55C80.6538 42.8833 81.6955 43.05 82.7455 43.05C83.5455 43.05 84.1872 42.975 84.6705 42.825C85.1705 42.6583 85.5372 42.4333 85.7705 42.15C86.0038 41.8667 86.1205 41.5417 86.1205 41.175C86.1205 40.7083 85.9372 40.3417 85.5705 40.075C85.2038 39.7917 84.7205 39.5667 84.1205 39.4C83.5205 39.2167 82.8538 39.05 82.1205 38.9C81.4038 38.7333 80.6788 38.5333 79.9455 38.3C79.2288 38.0667 78.5705 37.7667 77.9705 37.4C77.3705 37.0333 76.8788 36.55 76.4955 35.95C76.1288 35.35 75.9455 34.5833 75.9455 33.65C75.9455 32.65 76.2122 31.7417 76.7455 30.925C77.2955 30.0917 78.1122 29.4333 79.1955 28.95C80.2955 28.45 81.6705 28.2 83.3205 28.2C84.4205 28.2 85.5038 28.3333 86.5705 28.6C87.6372 28.85 88.5788 29.2333 89.3955 29.75L88.1455 32.825C87.3288 32.3583 86.5122 32.0167 85.6955 31.8C84.8788 31.5667 84.0788 31.45 83.2955 31.45C82.5122 31.45 81.8705 31.5417 81.3705 31.725C80.8705 31.9083 80.5122 32.15 80.2955 32.45C80.0788 32.7333 79.9705 33.0667 79.9705 33.45C79.9705 33.9 80.1538 34.2667 80.5205 34.55C80.8872 34.8167 81.3705 35.0333 81.9705 35.2C82.5705 35.3667 83.2288 35.5333 83.9455 35.7C84.6788 35.8667 85.4038 36.0583 86.1205 36.275C86.8538 36.4917 87.5205 36.7833 88.1205 37.15C88.7205 37.5167 89.2038 38 89.5705 38.6C89.9538 39.2 90.1455 39.9583 90.1455 40.875C90.1455 41.8583 89.8705 42.7583 89.3205 43.575C88.7705 44.3917 87.9455 45.05 86.8455 45.55C85.7622 46.05 84.3872 46.3 82.7205 46.3Z" fill="#CD6799"/>
</g>
<defs>
<filter id="filter0_i_101_3" x="0.791992" y="0.431885" width="89.3535" height="50.3362" filterUnits="userSpaceOnUse" color-interpolation-filters="sRGB">
<feFlood flood-opacity="0" result="BackgroundImageFix"/>
<feBlend mode="normal" in="SourceGraphic" in2="BackgroundImageFix" result="shape"/>
<feColorMatrix in="SourceAlpha" type="matrix" values="0 0 0 0 0 0 0 0 0 0 0 0 0 0 0 0 0 0 127 0" result="hardAlpha"/>
<feOffset dy="4"/>
<feGaussianBlur stdDeviation="2"/>
<feComposite in2="hardAlpha" operator="arithmetic" k2="-1" k3="1"/>
<feColorMatrix type="matrix" values="0 0 0 0 0 0 0 0 0 0 0 0 0 0 0 0 0 0 0.25 0"/>
<feBlend mode="normal" in2="shape" result="effect1_innerShadow_101_3"/>
</filter>
</defs>
</svg>
