<svg width="86" height="101" viewBox="0 0 86 101" fill="none" xmlns="http://www.w3.org/2000/svg">
<path d="M73.6453 57.9404C70.68 57.9644 68.1026 59.0848 65.9448 60.7411C65.1527 58.2809 64.3609 56.0893 64.2214 54.4816C64.0659 52.6065 63.8798 51.4616 64.0659 49.2208C64.2524 46.9801 65.0908 43.7892 65.0751 43.5458C65.0598 43.3024 64.8887 42.1575 63.181 42.1335C61.4733 42.1089 59.9983 42.6448 59.8275 43.351C59.6567 44.0572 59.3307 45.6649 59.1133 47.3206C58.8183 49.7567 55.6979 58.4512 53.9126 63.0058C53.3379 61.2284 52.8412 59.6693 52.7323 58.4272C52.5771 56.5521 52.3907 55.4071 52.5771 53.1664C52.7636 50.9257 53.602 47.7353 53.5863 47.4914C53.5707 47.248 53.3999 46.1031 51.6922 46.0791C49.9841 46.0545 48.5092 46.5904 48.3387 47.2966C48.1679 48.0033 47.9814 49.659 47.6245 51.2667C47.2673 52.8744 43.122 67.3907 42.0353 71.1409C41.5961 72.6589 41.1354 74.1612 40.6535 75.647C40.6535 75.647 40.6379 75.7201 40.5913 75.8418C40.4399 76.3077 40.2847 76.7705 40.1258 77.2301V77.2541C39.8927 77.9123 39.6443 78.5208 39.5202 78.5208C39.4269 78.5208 39.2561 76.7673 39.5511 74.3803C40.1721 69.3389 41.647 61.4963 41.6317 61.2284C41.6317 61.0821 41.9111 59.7184 40.6692 59.0117C39.4579 58.3055 39.0234 59.4744 38.9145 59.4744C38.806 59.4744 38.7281 59.8886 38.7281 59.8886C38.7281 59.8886 40.0792 51.0719 36.151 51.0719C33.6982 51.0719 30.3134 55.2854 28.6367 59.0848C26.7306 60.712 24.8261 62.3439 22.9232 63.9805C22.0076 64.7843 21.0604 65.5882 20.1754 66.3429C20.1131 66.2458 20.0512 66.1235 19.9889 66.0264C15.2381 58.0621 6.45084 52.4357 6.82341 41.7438C6.96325 37.8468 7.81694 27.6172 23.6997 15.196C36.772 5.08806 47.1744 7.88873 48.9753 14.0996C51.5523 22.9654 43.4017 39.43 29.8942 41.8164C24.7398 42.7179 22.0383 39.6002 21.3554 38.4313C20.6412 37.2132 20.5323 37.1401 20.2683 37.384C19.8338 37.7497 20.1131 38.8455 20.2683 39.4785C20.6722 41.1343 22.3332 44.0572 25.1434 45.4946C27.6275 46.7607 33.6669 47.4674 40.9795 43.0345C49.1614 38.0657 55.5581 24.2561 53.6795 12.6873C51.8007 0.947641 39.3803 -2.92483 27.6275 3.62661C20.6412 7.52415 13.0646 13.6614 7.61517 21.6502C1.14094 31.1486 0.116119 39.4054 0.535304 42.8642C2.04157 55.1392 12.8318 63.128 17.1479 69.0464C16.9305 69.2413 16.7284 69.4121 16.5579 69.5583C14.3997 71.2386 6.17116 77.9849 4.12185 85.1213C1.79319 93.2073 4.49475 99.0045 6.28003 99.7833C11.8227 102.195 17.5204 97.8596 20.5789 90.6986C23.6374 83.5381 23.2648 74.2341 21.8521 69.972C21.8365 69.9234 21.8212 69.8743 21.7899 69.8257C22.3489 69.3144 22.9232 68.7785 23.4823 68.2671C24.5097 67.3143 25.5502 66.3966 26.603 65.5145C26.0749 67.7798 25.6867 70.4833 25.5006 74.3803C25.2675 78.9595 26.4628 84.9019 28.031 87.2398C28.7299 88.2636 29.5526 88.2876 30.0807 88.2876C31.9126 88.2876 32.7356 85.9006 33.6516 83.0754C34.7693 79.6171 35.7785 75.5984 35.7785 75.5984C35.7785 75.5984 34.5209 86.461 37.9366 86.461C39.1785 86.461 40.4361 83.9278 40.9951 82.6371V82.6612C40.9951 82.6612 41.0261 82.5881 41.0884 82.4178C41.2125 82.1013 41.2901 81.9059 41.2901 81.9059V81.8578C41.7869 80.4936 42.9049 77.4004 44.566 72.2613C46.7086 65.6367 48.7735 57.3559 48.7735 57.3559C48.7735 57.3559 48.96 59.3773 49.5962 62.7384C49.9691 64.7112 50.7449 66.8788 51.3662 68.9733C50.8694 70.0696 50.5588 70.6782 50.5588 70.6782L50.5744 70.7027C50.1706 71.5306 49.7361 72.4316 49.2546 73.3091C47.5622 76.4748 45.5442 80.1044 45.2646 81.1512C44.9383 82.3932 45.0162 83.2947 45.6375 84.0255C46.0876 84.5614 46.8947 84.634 47.7177 84.5614C49.2393 84.3906 50.3104 83.8061 50.8381 83.441C51.6612 82.9782 52.6238 82.2715 53.5241 81.2243C55.1855 79.3001 56.1943 76.548 56.1014 72.9194C56.0548 70.9221 55.6356 68.9247 55.1232 67.0491C55.2787 66.7085 55.4182 66.3675 55.5737 66.0264C58.1974 60.0103 60.2313 53.4098 60.2313 53.4098C60.2313 53.4098 60.4178 55.4312 61.0541 58.7928C61.3647 60.4977 62.0013 62.3487 62.56 64.1507C60.0915 67.293 58.5699 70.9461 58.0266 73.3331C57.0487 77.766 57.8091 79.7628 59.2531 80.2256C59.9051 80.445 60.8367 79.9577 61.5199 79.4949C62.3892 79.0567 63.414 78.3019 64.3922 77.181C66.0537 75.2573 67.6525 72.5778 67.5593 68.9493C67.5126 67.293 67.2333 65.6608 66.8451 64.0776C68.941 62.7144 71.6426 61.9591 75.0889 62.5921C82.4794 63.9559 83.9388 71.1895 83.6591 74.2346C83.3797 77.2787 81.8272 78.935 81.3151 79.4463C80.8024 79.9582 80.6319 80.1285 80.6785 80.4936C80.7404 81.0295 80.9888 81.0054 81.4237 80.9077C82.0293 80.7375 85.3052 78.4476 85.4447 72.8458C85.6778 65.6853 81.3304 57.8673 73.6453 57.9404V57.9404ZM16.6355 88.0928C14.1823 92.2818 10.7669 93.8649 9.2919 92.5257C7.70839 91.0883 8.32935 84.9019 11.3412 80.4695C13.1731 77.766 15.5331 75.2568 17.1013 73.7227C17.4582 73.3817 17.9862 72.8949 18.6228 72.2859C18.7314 72.1882 18.7936 72.1396 18.7936 72.1396L19.1662 71.774C20.2683 78.1066 19.2128 83.6844 16.6355 88.0928V88.0928ZM34.4899 69.0464C33.6359 72.3104 31.8506 80.6644 30.7639 80.2016C29.8323 79.8119 29.2576 73.4793 30.5774 67.2199C31.245 64.0776 32.6577 60.3269 33.4808 58.8659C34.8159 56.5275 36.2909 55.7477 36.6478 56.6983C37.0983 57.9404 35.0177 67.0005 34.4899 69.0464V69.0464ZM49.2237 80.1039C48.8664 80.3964 48.5251 80.5912 48.3697 80.445C48.2611 80.3473 48.5251 79.9577 48.5251 79.9577C48.5251 79.9577 50.3727 76.8405 51.1022 75.4276C51.5217 74.5997 52.0181 73.6256 52.5462 72.5293V72.8458C52.5462 76.5725 50.2482 79.0812 49.2233 80.1039H49.2237ZM60.5883 76.0366C60.3242 75.7441 60.3709 74.77 61.2558 71.7254C61.5974 70.5319 62.4045 68.5351 63.7866 66.6109C63.9418 67.3902 64.0506 68.1454 64.035 68.8516C64.0193 73.5525 61.8771 75.3059 60.5883 76.0366Z" fill="#CD6799"/>
</svg>
