<svg width="76" height="51" viewBox="0 0 76 51" fill="none" xmlns="http://www.w3.org/2000/svg">
<g filter="url(#filter0_i_101_3)">
<path d="M19.032 46.768C15.448 46.768 12.0133 46.2987 8.728 45.36C5.44267 44.3787 2.79733 43.12 0.792 41.584L4.312 33.776C6.232 35.1413 8.49333 36.272 11.096 37.168C13.7413 38.0213 16.408 38.448 19.096 38.448C21.144 38.448 22.7867 38.256 24.024 37.872C25.304 37.4453 26.2427 36.8693 26.84 36.144C27.4373 35.4187 27.736 34.5867 27.736 33.648C27.736 32.4533 27.2667 31.5147 26.328 30.832C25.3893 30.1067 24.152 29.5307 22.616 29.104C21.08 28.6347 19.3733 28.208 17.496 27.824C15.6613 27.3973 13.8053 26.8853 11.928 26.288C10.0933 25.6907 8.408 24.9227 6.872 23.984C5.336 23.0453 4.07733 21.808 3.096 20.272C2.15733 18.736 1.688 16.7733 1.688 14.384C1.688 11.824 2.37067 9.49866 3.736 7.408C5.144 5.27466 7.23467 3.58933 10.008 2.352C12.824 1.072 16.344 0.431999 20.568 0.431999C23.384 0.431999 26.1573 0.773332 28.888 1.456C31.6187 2.096 34.0293 3.07733 36.12 4.4L32.92 12.272C30.8293 11.0773 28.7387 10.2027 26.648 9.648C24.5573 9.05067 22.5093 8.752 20.504 8.752C18.4987 8.752 16.856 8.98667 15.576 9.456C14.296 9.92533 13.3787 10.544 12.824 11.312C12.2693 12.0373 11.992 12.8907 11.992 13.872C11.992 15.024 12.4613 15.9627 13.4 16.688C14.3387 17.3707 15.576 17.9253 17.112 18.352C18.648 18.7787 20.3333 19.2053 22.168 19.632C24.0453 20.0587 25.9013 20.5493 27.736 21.104C29.6133 21.6587 31.32 22.4053 32.856 23.344C34.392 24.2827 35.6293 25.52 36.568 27.056C37.5493 28.592 38.04 30.5333 38.04 32.88C38.04 35.3973 37.336 37.7013 35.928 39.792C34.52 41.8827 32.408 43.568 29.592 44.848C26.8187 46.128 23.2987 46.768 19.032 46.768ZM50.3625 46.3C48.9958 46.3 47.7208 46.075 46.5375 45.625C45.3708 45.175 44.3542 44.5417 43.4875 43.725C42.6375 42.9083 41.9708 41.95 41.4875 40.85C41.0208 39.75 40.7875 38.55 40.7875 37.25C40.7875 35.95 41.0208 34.75 41.4875 33.65C41.9708 32.55 42.6458 31.5917 43.5125 30.775C44.3792 29.9583 45.3958 29.325 46.5625 28.875C47.7292 28.425 48.9958 28.2 50.3625 28.2C51.7458 28.2 53.0125 28.425 54.1625 28.875C55.3292 29.325 56.3375 29.9583 57.1875 30.775C58.0542 31.575 58.7292 32.525 59.2125 33.625C59.6958 34.725 59.9375 35.9333 59.9375 37.25C59.9375 38.55 59.6958 39.7583 59.2125 40.875C58.7292 41.975 58.0542 42.9333 57.1875 43.75C56.3375 44.55 55.3292 45.175 54.1625 45.625C53.0125 46.075 51.7458 46.3 50.3625 46.3ZM56.0875 50.025C55.4042 50.025 54.7542 49.95 54.1375 49.8C53.5375 49.65 52.9375 49.4083 52.3375 49.075C51.7542 48.7417 51.1375 48.2917 50.4875 47.725C49.8542 47.1583 49.1625 46.4583 48.4125 45.625L52.6625 44.55C53.1125 45.1667 53.5292 45.6583 53.9125 46.025C54.2958 46.3917 54.6625 46.65 55.0125 46.8C55.3792 46.95 55.7625 47.025 56.1625 47.025C57.2292 47.025 58.1792 46.5917 59.0125 45.725L60.8125 47.875C59.6292 49.3083 58.0542 50.025 56.0875 50.025ZM50.3625 42.85C51.1458 42.85 51.8625 42.7167 52.5125 42.45C53.1792 42.1833 53.7625 41.8 54.2625 41.3C54.7625 40.8 55.1458 40.2083 55.4125 39.525C55.6958 38.825 55.8375 38.0667 55.8375 37.25C55.8375 36.4167 55.6958 35.6583 55.4125 34.975C55.1458 34.2917 54.7625 33.7 54.2625 33.2C53.7625 32.7 53.1792 32.3167 52.5125 32.05C51.8625 31.7833 51.1458 31.65 50.3625 31.65C49.5792 31.65 48.8542 31.7833 48.1875 32.05C47.5208 32.3167 46.9375 32.7 46.4375 33.2C45.9542 33.7 45.5708 34.2917 45.2875 34.975C45.0208 35.6583 44.8875 36.4167 44.8875 37.25C44.8875 38.0667 45.0208 38.825 45.2875 39.525C45.5708 40.2083 45.9542 40.8 46.4375 41.3C46.9375 41.8 47.5208 42.1833 48.1875 42.45C48.8542 42.7167 49.5792 42.85 50.3625 42.85ZM62.9813 46V28.5H67.0313V42.7H75.8063V46H62.9813Z" fill="#0079D6"/>
</g>
<defs>
<filter id="filter0_i_101_3" x="0.791992" y="0.431885" width="75.0142" height="53.593" filterUnits="userSpaceOnUse" color-interpolation-filters="sRGB">
<feFlood flood-opacity="0" result="BackgroundImageFix"/>
<feBlend mode="normal" in="SourceGraphic" in2="BackgroundImageFix" result="shape"/>
<feColorMatrix in="SourceAlpha" type="matrix" values="0 0 0 0 0 0 0 0 0 0 0 0 0 0 0 0 0 0 127 0" result="hardAlpha"/>
<feOffset dy="4"/>
<feGaussianBlur stdDeviation="2"/>
<feComposite in2="hardAlpha" operator="arithmetic" k2="-1" k3="1"/>
<feColorMatrix type="matrix" values="0 0 0 0 0 0 0 0 0 0 0 0 0 0 0 0 0 0 0.25 0"/>
<feBlend mode="normal" in2="shape" result="effect1_innerShadow_101_3"/>
</filter>
</defs>
</svg>
